<?xml version="1.0" encoding="utf-8"?>
<!-- Generator: Adobe Illustrator 24.0.0, SVG Export Plug-In . SVG Version: 6.00 Build 0)  -->
<svg version="1.1" xmlns="http://www.w3.org/2000/svg" xmlns:xlink="http://www.w3.org/1999/xlink" x="0px" y="0px"
	 viewBox="0 0 500 328.78" style="enable-background:new 0 0 500 328.78;" xml:space="preserve">
<style type="text/css">
	.st0{display:none;}
	.st1{display:inline;fill:#1EC8FF;}
	.st2{display:inline;fill:#1CBCF0;}
	.st3{display:inline;fill:#06242E;}
	.st4{fill:#0E8F6B;}
	.st5{fill:#10A37B;}
	.st6{opacity:0.06;fill:#FFFFFF;}
	.st7{fill:#965009;}
	.st8{fill:#854708;}
	.st9{fill:#AD5D0A;}
	.st10{fill:#EDBA25;}
	.st11{fill:#DEAD1D;}
	.st12{fill:#3B3B3B;}
	.st13{fill:#1FA324;}
	.st14{fill:#1B8F20;}
	.st15{fill:#D90000;}
	.st16{fill:#B80000;}
	.st17{fill:#D93030;}
	.st18{fill:#8C4E1B;}
	.st19{fill:#DE3939;}
	.st20{fill:#CC3434;}
	.st21{fill:#FED99B;}
	.st22{fill:#FEC668;}
	.st23{fill:#FEBC4C;}
	.st24{fill:#F0B148;}
	.st25{fill:#FEC563;}
	.st26{fill:#FE4242;}
	.st27{fill:#DB3939;}
	.st28{fill:#5E5E5E;}
	.st29{fill:#FE4A4A;}
	.st30{fill:#FE8989;}
	.st31{fill:#8A2323;}
	.st32{fill:#FEA5A5;}
	.st33{fill:#E04141;}
	.st34{fill:#FFFFFF;}
	.st35{fill:#24C8FF;}
	.st36{fill:#0A3A4A;}
	.st37{opacity:0.1;}
</style>
<g id="BACKGROUND" class="st0">
</g>
<g id="OBJECTS">
	<g>
		<g id="XMLID_1_">
			<g id="XMLID_330_">
				<path id="XMLID_42_" class="st4" d="M476.91,303.88l-98.95,6.94c-85.23,5.98-170.69,5.98-255.92,0l-98.97-6.94
					c-2.21-0.16-4.01-2.12-4.28-4.66l-1.45-13.92c-8.06-77.47-8.3-155.77-0.72-233.3l2.19-22.42c0.25-2.56,2.06-4.54,4.28-4.69
					l99.64-6.97c85.23-5.96,170.69-5.94,255.92,0.05l98.26,6.91c2.22,0.16,4.02,2.12,4.28,4.67l1.75,17.2
					c7.86,77.43,7.92,155.65,0.18,233.1l-1.93,19.33C480.94,301.76,479.13,303.73,476.91,303.88z"/>
				<path id="XMLID_329_" class="st5" d="M458.87,288.17l-91.39,6.16c-78.71,5.31-157.65,5.31-236.36,0l-91.41-6.16
					c-2.04-0.14-3.71-1.88-3.95-4.13l-1.34-12.35c-7.44-68.75-7.66-138.22-0.66-207.03l2.02-19.89c0.23-2.27,1.9-4.03,3.96-4.17
					l92.03-6.18c78.72-5.29,157.65-5.27,236.36,0.05l90.75,6.14c2.05,0.14,3.71,1.88,3.95,4.14l1.61,15.27
					c7.26,68.71,7.32,138.12,0.17,206.85l-1.78,17.15C462.59,286.28,460.92,288.03,458.87,288.17z"/>
				<path id="XMLID_337_" class="st6" d="M439.12,187.76c-17.62,2.84-35.07,6.77-52.29,11.7c17.96-10,36.52-18.6,55.55-25.62
					c17.3-6.38,10.19-35.33-7.46-31.22c-35.12,8.17-69.71,19.08-103.55,32.52c13.48-9.82,27.18-19.26,41.07-28.3
					c13.66-8.89,4.55-35.2-10.81-29.59c-29.56,10.8-58.71,23.08-87.35,36.75c18.76-13.33,37.96-25.89,57.07-38.37
					c13.92-9.09,4.54-34.28-10.81-29.59c-25.01,7.64-49.62,16.99-73.69,27.94c8.43-6.45,16.99-12.69,25.68-18.7
					c13.13-9.08,4.57-36.22-10.81-29.59c-10.66,4.6-21.2,9.52-31.63,14.71c3.15-11.24-4.22-25.71-16.45-21.08
					c-5.71,2.16-11.38,4.45-17.03,6.83c-1.14-9.21-7.99-17.5-17.12-13.39c-1.97,0.89-3.92,1.81-5.87,2.72
					c2.52-12.05-7.64-25.39-20.19-18c-28.8,16.98-57.12,35-84.93,54.04c-9.2,6.3-7.99,18.71-2.23,25.54
					c-9.43,9.45-18.74,19.07-27.92,28.86c-5.56,5.94-5.21,16.88,0,22.89c5.88,6.79,13.86,5.42,19.84,0
					c1.02-0.93,2.06-1.83,3.08-2.75c0.44,1.09,0.99,2.15,1.67,3.14c4,5.79,12.35,8.97,18.1,4.17c7.83-6.54,15.81-12.82,23.92-18.85
					c-5.88,7.09-11.54,14.46-16.85,22.22c-4.33,6.33-5.79,14.46-1.1,21.26c3.91,5.67,12.47,9.14,18.1,4.17
					c8.56-7.56,17.3-14.86,26.17-21.92c-2.07,2.33-4.14,4.67-6.19,7.03c-11.02,12.71,3.37,35.68,17,25.43
					c18.58-13.98,37.74-26.8,57.39-38.45c-15.97,14.56-31.09,30.32-44.97,47.77c-10.64,13.39,2.79,34.65,17,25.43
					c25.07-16.28,50.69-31.32,76.78-45.14c-12.62,11.04-25.03,22.42-37.2,34.14c-12.67,12.21,3.49,33.68,17,25.43
					c23.03-14.08,46.63-26.75,70.69-38.08c-10.39,9.01-20.49,18.5-30.22,28.52c-12.34,12.7,3.37,33.57,17,25.43
					c43.86-26.22,90.88-44.5,139.38-54.75c4.44,4.04,11.04,5.31,15.88,1.5c3.03-2.39,6.06-4.78,9.09-7.16
					C463.7,206.49,454.62,185.26,439.12,187.76z"/>
			</g>
			<g id="XMLID_328_">
				<path id="XMLID_331_" class="st7" d="M492,45.55l-1.74-17.1l-0.01-0.11c-0.69-6.77-5.01-12.16-10.63-13.58
					c-0.7-0.19-1.42-0.31-2.15-0.36l-98.26-6.93c-85.26-5.99-171.74-6.01-257.01-0.05L22.54,14.4c-0.91,0.06-1.8,0.23-2.65,0.5
					c-5.4,1.6-9.48,6.9-10.14,13.5l-0.04,0.44L7.56,50.83c-7.65,78.24-7.41,157.57,0.73,235.74l1.05,10.12l0.39,3.79
					c0.59,5.71,3.79,10.46,8.15,12.64c1.43,0.71,2.99,1.15,4.63,1.26l98.98,6.95c42.63,2.99,85.57,4.48,128.51,4.48
					s85.88-1.49,128.51-4.48l98.96-6.95c1.46-0.1,2.88-0.47,4.18-1.07c4.62-2.07,8.01-6.95,8.6-12.9l0.34-3.35l1.6-15.98
					C500,202.92,499.94,123.68,492,45.55z M472.57,293.64l-5.05,0.36l-90.11,6.33c-84.54,5.93-170.28,5.93-254.81,0l-90.7-6.36
					l-4.5-0.32l-0.9-8.66l-0.1-0.92c-7.97-76.57-8.21-154.25-0.72-230.87l1.23-12.59l0.53-5.46l6.89-0.49l88.95-6.22
					c84.54-5.92,170.28-5.89,254.81,0.05l86.99,6.12l7.5,0.53l0.51,5.03l0.8,7.82c7.77,76.52,7.83,154.13,0.18,230.67l-0.67,6.65
					L472.57,293.64z"/>
				<path id="XMLID_340_" class="st8" d="M34.34,34.65l-6.89,0.49l-0.53,5.46L9.71,28.84l0.04-0.44c0.66-6.61,4.74-11.9,10.14-13.5
					L34.34,34.65z"/>
				<path id="XMLID_347_" class="st8" d="M490.26,28.45l-17.17,11.72l-0.51-5.03l-7.5-0.53l14.53-19.85
					c5.63,1.42,9.95,6.82,10.63,13.58L490.26,28.45z"/>
				<path id="XMLID_345_" class="st8" d="M490.58,297.06l-0.34,3.35c-0.59,5.96-3.98,10.83-8.6,12.9L467.52,294l5.05-0.36l0.83-8.32
					L490.58,297.06z"/>
				<path id="XMLID_339_" class="st8" d="M31.9,293.97l-14.01,19.15c-4.36-2.19-7.56-6.93-8.15-12.64l-0.39-3.79l17.16-11.7
					l0.9,8.66L31.9,293.97z"/>
				<path id="XMLID_2_" class="st9" d="M99.37,20.05c0,0,0.7-0.16,2.02-0.46c1.32-0.27,3.26-0.72,5.73-1.19
					c4.94-0.98,12.02-2.27,20.53-3.56c4.26-0.66,8.87-1.33,13.76-1.95c4.89-0.6,10.05-1.28,15.39-1.84
					c5.35-0.54,10.87-1.09,16.5-1.54c5.63-0.42,11.34-0.89,17.06-1.16c5.72-0.3,11.45-0.6,17.09-0.68c2.82-0.06,5.62-0.11,8.39-0.17
					c2.77,0.01,5.5,0.03,8.19,0.04c2.69,0.05,5.33,0.04,7.92,0.13c2.59,0.13,5.13,0.25,7.59,0.37c2.47,0.14,4.86,0.19,7.18,0.39
					c2.32,0.22,4.56,0.44,6.71,0.64c2.15,0.22,4.21,0.37,6.17,0.63c1.95,0.3,3.81,0.59,5.55,0.86c3.48,0.52,6.51,1,8.98,1.65
					c4.96,1.15,7.75,1.9,7.75,1.9c0.38,0.1,0.61,0.54,0.52,0.97c-0.08,0.38-0.37,0.63-0.7,0.63l-0.05,0c0,0-2.88-0.06-7.84-0.32
					c-2.47-0.2-5.51-0.13-8.97-0.18c-3.46-0.04-7.36-0.08-11.63,0.04c-4.26,0.09-8.87,0.12-13.76,0.32
					c-4.88,0.16-10.03,0.33-15.36,0.59c-2.66,0.1-5.37,0.21-8.11,0.32c-2.74,0.14-5.52,0.28-8.32,0.42
					c-5.6,0.28-11.28,0.56-16.97,0.84c-11.38,0.59-22.76,1.18-33.44,1.73c-5.34,0.32-10.51,0.48-15.4,0.74
					c-4.89,0.3-9.54,0.4-13.81,0.61c-4.28,0.21-8.21,0.3-11.69,0.44c-3.48,0.1-6.52,0.19-9.02,0.26c-5.01,0.09-7.87,0.14-7.87,0.14
					c-0.39,0.01-0.71-0.35-0.71-0.8C98.79,20.46,99.04,20.12,99.37,20.05z"/>
			</g>
		</g>
	</g>
</g>
<g id="DESIGNED_BY_FREEPIK">
</g>
</svg>
