<?xml version="1.0" encoding="utf-8"?>
<!-- Generator: Adobe Illustrator 24.0.0, SVG Export Plug-In . SVG Version: 6.00 Build 0)  -->
<svg version="1.1" id="Layer_1" xmlns="http://www.w3.org/2000/svg" xmlns:xlink="http://www.w3.org/1999/xlink" x="0px" y="0px"
	 viewBox="0 0 796.61 539.74" style="enable-background:new 0 0 796.61 539.74;" xml:space="preserve">
<style type="text/css">
	.st0{fill:#DE3939;}
	.st1{fill:#CC3434;}
	.st2{fill:#FED99B;}
	.st3{fill:#FEC668;}
	.st4{fill:#FEBC4C;}
	.st5{fill:#F0B148;}
	.st6{fill:#FEC563;}
	.st7{fill:#FE4242;}
	.st8{fill:#DB3939;}
	.st9{fill:#1FA324;}
	.st10{fill:#1B8F20;}
	.st11{fill:#D90000;}
	.st12{fill:#B80000;}
	.st13{fill:#D93030;}
	.st14{fill:#8C4E1B;}
	.st15{fill:#FE4A4A;}
	.st16{fill:#FE8989;}
	.st17{fill:#8A2323;}
	.st18{fill:#FEA5A5;}
	.st19{fill:#E04141;}
	.st20{fill:#FFFFFF;}
	.st21{fill:#24C8FF;}
	.st22{fill:#0A3A4A;}
	.st23{fill:#FBB03B;}
	.st24{fill:#5E5E5E;}
	.st25{opacity:0.1;}
</style>
<g id="XMLID_3_">
	<g id="XMLID_540_">
		<g id="XMLID_546_">
			<g id="XMLID_1048_">
				<path id="XMLID_1084_" class="st0" d="M603.26,145.46c-1.13,3.68-3.6,6.55-6.72,8.24c-2.3,1.28-4.98,1.89-7.7,1.69l-1.2-0.1
					c0,0-0.25,0-0.74-0.05c-0.51-0.05-1.23-0.1-2.16-0.1c-1.81-0.05-4.49,0.02-6.99,0.71c-2.57,0.71-4.44,1.94-5.64,3.8
					c-1.2,1.81-2.62,5.08-3.43,10.44c-0.78,5.3-0.83,12.23-0.05,19.83c0.39,3.8,0.96,7.8,1.72,11.89c0.37,2.06,0.81,4.14,1.25,6.23
					c0.44,1.81,1.03,4.68,1.54,7.31c2.06,10.64,3.6,21.92,4.29,33.66c0.34,5.91,0.47,11.77,0.32,18c-0.2,6.13-0.44,11.89-0.93,17.92
					c-0.49,6.01-1.2,12.06-2.23,18.19c-0.98,6.1-2.28,12.28-3.95,18.49c-3.29,12.36-8.04,24.86-14.83,36.73
					c-6.74,11.84-15.62,22.97-25.96,32.07c-10.32,9.12-21.94,16.08-33.12,20.86c-11.2,4.81-21.94,7.53-31.41,9.1
					c-9.49,1.57-17.78,2.01-24.66,1.99c-6.87-0.02-12.38-0.52-16.48-1.03c-2.03-0.27-3.73-0.54-5.05-0.81
					c-0.78-0.15-1.37-0.27-1.77-0.37c-0.34-0.07-0.61-0.15-0.78-0.17c-0.02-0.02-0.05-0.02-0.05-0.02
					c-15.37-2.45-28.05-11.5-35.6-23.78c-6.23-10.1-9.02-22.41-6.99-35.04c4.49-28,30.82-47.07,58.82-42.59
					c3.92,0.64,7.65,1.69,11.16,3.11l0.39,0.17c-0.1,0-0.2-0.02-0.34-0.07c-0.29-0.05-0.32-0.05-0.39-0.02
					c-0.07,0.07,0.07,0.22,0.44,0.44c0.74,0.44,2.35,1.15,4.63,1.86c4.56,1.45,11.65,2.87,19.03,2.26c3.7-0.32,7.53-1.1,11.62-2.84
					c4.07-1.77,8.46-4.63,12.87-9c4.41-4.34,8.75-10.22,12.6-17.24c1.94-3.51,3.78-7.28,5.44-11.28c1.72-3.97,3.26-8.16,4.68-12.5
					c1.42-4.29,2.75-8.9,3.75-13.17c1.01-4.17,1.89-8.7,2.55-13.12c1.37-8.92,2.06-18.02,2.21-26.97c0.02-2.28,0.05-4.27-0.02-7.26
					c-0.02-2.72,0-5.42,0.07-8.09c0.15-5.34,0.49-10.64,1.08-15.84c1.18-10.42,3.19-20.59,7.04-30.38
					c1.91-4.88,4.36-9.66,7.48-14.07c3.11-4.41,6.96-8.46,11.3-11.55c4.32-3.11,9-5.2,13.26-6.4c4.29-1.2,8.19-1.57,11.5-1.62
					c6.67-0.05,11.25,1.01,14.27,1.74c1.52,0.37,2.62,0.69,3.38,0.93c0.74,0.22,1.13,0.34,1.13,0.34
					C601.29,130.23,605.49,138.05,603.26,145.46z"/>
				<path id="XMLID_1081_" class="st1" d="M592.05,153.69c-1.45,0.81-3.04,1.32-4.68,1.57c-0.12,0-0.27,0-0.47-0.02
					c-0.51-0.05-1.23-0.1-2.16-0.1c-0.78-0.02-1.72-0.02-2.75,0.07c-0.02-0.02-0.05-0.02-0.07,0c-0.44-0.05-1.01-0.07-1.67-0.07
					c-1.81-0.05-4.49,0.02-6.99,0.71c-2.57,0.71-4.44,1.94-5.64,3.8c-1.2,1.81-2.62,5.08-3.43,10.44
					c-0.78,5.3-0.83,12.23-0.05,19.83c0.39,3.8,0.96,7.8,1.72,11.89c0.37,2.06,0.81,4.14,1.25,6.23c0.44,1.81,1.03,4.68,1.54,7.31
					c2.06,10.64,3.6,21.92,4.29,33.66c0.34,5.91,0.47,11.77,0.32,18c-0.2,6.13-0.44,11.89-0.93,17.92
					c-0.49,6.01-1.2,12.06-2.23,18.19c-0.98,6.1-2.28,12.28-3.95,18.49c-3.29,12.36-8.04,24.86-14.83,36.73
					c-6.74,11.84-15.62,22.97-25.96,32.07c-10.32,9.12-21.94,16.08-33.12,20.86c-11.2,4.81-21.94,7.53-31.41,9.1
					c-8.09,1.32-15.3,1.86-21.53,1.96c-0.39,0-0.78,0.02-1.15,0c-5.71-0.12-10.4-0.56-13.98-1.01c-2.03-0.27-3.73-0.54-5.05-0.81
					c-0.78-0.15-1.37-0.27-1.77-0.37c-0.34-0.07-0.61-0.15-0.78-0.17c-0.02-0.02-0.05-0.02-0.05-0.02
					c-14.86-2.38-27.17-10.89-34.79-22.53c138.3,31.43,163.14-71.47,163.92-105.18c1.23-53.94-7.97-109.72,1.84-133.62
					c3.68-8.97,12.04-11.38,21.04-10.89c-7.18,0.49-13.48,3.41-16.55,10.89c-9.81,23.9-0.61,79.68-1.84,133.62
					c-0.69,28.83-18.95,108.34-110.84,111.02c100.06,2.67,119.55-81.23,120.23-111.02c1.23-53.94-7.97-109.72,1.84-133.62
					c2.45-5.98,6.99-9.05,12.41-10.3C580.48,149.4,587.1,151.68,592.05,153.69z"/>
				<path id="XMLID_1080_" class="st2" d="M596.54,153.69c-2.3,1.28-4.98,1.89-7.7,1.69l-1.2-0.1c0,0-0.25,0-0.74-0.05
					c-0.51-0.05-1.23-0.1-2.16-0.1c-1.81-0.05-4.49,0.02-6.99,0.71c-2.57,0.71-4.44,1.94-5.64,3.8c-1.2,1.81-2.62,5.08-3.43,10.44
					c-0.78,5.3-0.83,12.23-0.05,19.83c0.39,3.8,0.96,7.8,1.72,11.89c0.37,2.06,0.81,4.14,1.25,6.23c0.44,1.81,1.03,4.68,1.54,7.31
					c2.06,10.64,3.6,21.92,4.29,33.66c0.34,5.91,0.47,11.77,0.32,18c-0.2,6.13-0.44,11.89-0.93,17.92
					c-0.49,6.01-1.2,12.06-2.23,18.19c-0.98,6.1-2.28,12.28-3.95,18.49c-3.29,12.36-8.04,24.86-14.83,36.73
					c-6.74,11.84-15.62,22.97-25.96,32.07c-10.32,9.12-21.94,16.08-33.12,20.86c-11.2,4.81-21.94,7.53-31.41,9.1
					c-9.49,1.57-17.78,2.01-24.66,1.99c-6.87-0.02-12.38-0.52-16.48-1.03c-2.03-0.27-3.73-0.54-5.05-0.81
					c-0.78-0.15-1.37-0.27-1.77-0.37c-0.34-0.07-0.61-0.15-0.78-0.17c-0.02-0.02-0.05-0.02-0.05-0.02
					c-15.37-2.45-28.05-11.5-35.6-23.78c142.96,35.31,168.44-69.8,169.22-103.93c1.23-53.94-7.97-109.72,1.84-133.62
					C559.1,141.29,583.59,148.45,596.54,153.69z"/>
				<path id="XMLID_1079_" class="st3" d="M575.75,147.96c-6.28,0.93-11.62,3.97-14.37,10.67c-9.81,23.9-0.61,79.68-1.84,133.62
					c-0.69,29.79-20.18,113.69-120.23,111.02c91.89-2.67,110.16-82.18,110.84-111.02c1.23-53.94-7.97-109.72,1.84-133.62
					C556.03,148.74,565.74,146.83,575.75,147.96z"/>
				<path id="XMLID_1078_" class="st1" d="M593.89,128c0,0-0.39-0.12-1.13-0.34c-0.76-0.25-1.86-0.56-3.38-0.93
					c-3.02-0.74-7.6-1.79-14.27-1.74c-3.31,0.05-7.21,0.42-11.5,1.62c-4.27,1.2-8.95,3.29-13.26,6.4
					c-4.34,3.09-8.19,7.13-11.3,11.55c-3.11,4.41-5.57,9.19-7.48,14.07c-3.85,9.78-5.86,19.96-7.04,30.38
					c-0.59,5.2-0.93,10.49-1.08,15.84c-0.07,2.67-0.1,5.37-0.07,8.09c0.07,2.99,0.05,4.98,0.02,7.26
					c-0.15,8.95-0.83,18.04-2.21,26.97c-0.66,4.41-1.54,8.95-2.55,13.12c-1.01,4.27-2.33,8.88-3.75,13.17
					c-1.42,4.34-2.97,8.53-4.68,12.5c-1.67,4-3.51,7.77-5.44,11.28c-3.85,7.01-8.19,12.9-12.6,17.24c-4.41,4.36-8.8,7.23-12.87,9
					c-4.09,1.74-7.92,2.53-11.62,2.84c-7.38,0.61-14.47-0.81-19.03-2.26c-2.28-0.71-3.9-1.42-4.63-1.86
					c-0.37-0.22-0.52-0.37-0.44-0.44c0.07-0.02,0.1-0.02,0.39,0.02c0.15,0.05,0.25,0.07,0.34,0.07l-0.39-0.17
					c-3.51-1.42-7.23-2.48-11.16-3.11c-28-4.49-54.33,14.59-58.82,42.59c-2.04,12.63,0.76,24.93,6.99,35.04
					c3.11,5.07,7.11,9.59,11.79,13.31c-1.27-1.59-2.45-3.29-3.53-5.03c-6.2-10.13-9.02-22.43-6.96-35.06
					c4.49-28,30.82-47.07,58.79-42.59c3.92,0.64,7.65,1.69,11.16,3.14l0.42,0.17c-0.12,0-0.2-0.05-0.34-0.1
					c-0.29-0.05-0.34-0.05-0.39-0.02c-0.1,0.07,0.05,0.22,0.44,0.44c0.74,0.47,2.33,1.15,4.61,1.86c4.58,1.45,11.65,2.89,19.03,2.28
					c3.7-0.32,7.53-1.1,11.62-2.87c4.09-1.74,8.46-4.63,12.87-9c4.44-4.34,8.75-10.2,12.6-17.24c0.33-0.58,0.62-1.21,0.94-1.81
					c0.2,0.21,0.4,0.41,0.66,0.53c2.65,1.25,7.27-2.94,10.3-9.37c3.04-6.43,3.35-12.65,0.7-13.91c-0.65-0.31-1.41-0.28-2.24,0.02
					c1.35-4.08,2.57-8.37,3.54-12.42c0.98-4.14,1.86-8.7,2.55-13.12c1.37-8.92,2.06-18,2.21-26.97c0-2.28,0.02-4.27-0.02-7.26
					c-0.02-2.72,0-5.39,0.05-8.09c0.15-5.34,0.49-10.62,1.08-15.81c1.2-10.42,3.19-20.62,7.04-30.38c1.94-4.88,4.39-9.68,7.48-14.07
					c3.11-4.44,6.96-8.48,11.33-11.57c4.32-3.11,9-5.2,13.24-6.37c4.29-1.2,8.21-1.59,11.5-1.64c6.69-0.02,11.28,1.03,14.27,1.74
					c1.52,0.39,2.65,0.69,3.41,0.93c0.71,0.22,1.13,0.37,1.13,0.37c0.27,0.07,0.54,0.17,0.78,0.29
					C601.51,132.58,598.28,129.32,593.89,128z"/>
				<path id="XMLID_1077_" class="st1" d="M522.61,303.13c1.1,0.52,0.97,3.11-0.29,5.79c-1.26,2.67-3.18,4.42-4.29,3.9
					c-1.1-0.52-0.97-3.11,0.29-5.79C519.59,304.36,521.51,302.61,522.61,303.13z"/>
				<g id="XMLID_1073_">
					<path id="XMLID_1076_" class="st4" d="M565.64,305.84c-1.24,7.92,1.47,14.91,6.05,15.63c4.58,0.71,9.29-5.12,10.53-13.04
						c1.24-7.91-1.48-14.91-6.05-15.62C571.59,292.09,566.88,297.92,565.64,305.84z"/>
					<path id="XMLID_1075_" class="st5" d="M565.63,305.85c-1.23,7.89,1.47,14.91,6.06,15.63c0.67,0.11,1.34,0.07,2.02-0.13
						c-3.37-2.08-5.18-8.17-4.14-14.88c1.05-6.74,4.63-11.95,8.47-12.91c-0.59-0.4-1.21-0.64-1.89-0.74
						C571.58,292.1,566.87,297.92,565.63,305.85z"/>
					<path id="XMLID_1074_" class="st6" d="M574.4,316.13c1.71,0.27,3.67-3.23,4.38-7.81c0.71-4.58-0.09-8.51-1.8-8.77
						C575.28,299.28,572.69,315.86,574.4,316.13z"/>
				</g>
				<g id="XMLID_1069_">
					<path id="XMLID_1072_" class="st4" d="M572.21,265.6c0.14,6.32,3.21,11.39,6.87,11.31s6.51-5.27,6.37-11.59
						s-3.21-11.39-6.87-11.31C574.93,254.08,572.07,259.27,572.21,265.6z"/>
					<path id="XMLID_1071_" class="st5" d="M572.2,265.61c0.14,6.3,3.21,11.39,6.88,11.31c0.54-0.01,1.05-0.13,1.56-0.38
						c-2.91-1.15-5.16-5.63-5.28-10.99c-0.12-5.39,1.94-9.93,4.8-11.21c-0.52-0.23-1.03-0.33-1.57-0.32
						C574.92,254.09,572.07,259.28,572.2,265.61z"/>
					<path id="XMLID_1070_" class="st6" d="M580.45,272.38c1.36-0.03,2.4-3.02,2.33-6.68s-1.25-6.6-2.61-6.57
						C578.79,259.17,579.08,272.41,580.45,272.38z"/>
				</g>
				<g id="XMLID_1065_">
					<path id="XMLID_1068_" class="st4" d="M549.92,355.6c-2.32,5.88-1.45,11.74,1.96,13.09s8.04-2.34,10.37-8.22
						c2.32-5.88,1.45-11.74-1.96-13.09S552.24,349.72,549.92,355.6z"/>
					<path id="XMLID_1067_" class="st5" d="M549.9,355.61c-2.32,5.87-1.45,11.74,1.96,13.09c0.5,0.2,1.02,0.29,1.58,0.25
						c-2.24-2.19-2.58-7.19-0.61-12.18c1.98-5.01,5.64-8.41,8.76-8.48c-0.39-0.41-0.82-0.7-1.33-0.9
						C556.87,346.04,552.23,349.72,549.9,355.61z"/>
					<path id="XMLID_1066_" class="st6" d="M554.88,365.04c1.27,0.5,3.39-1.85,4.73-5.25c1.34-3.4,1.4-6.57,0.14-7.07
						C558.47,352.22,553.61,364.54,554.88,365.04z"/>
				</g>
				<g id="XMLID_1061_">
					<path id="XMLID_1064_" class="st4" d="M569.38,230.42c0.1,4.74,2.41,8.53,5.15,8.47c2.74-0.06,4.88-3.95,4.78-8.69
						c-0.1-4.74-2.41-8.53-5.15-8.47C571.41,221.79,569.27,225.68,569.38,230.42z"/>
					<path id="XMLID_1063_" class="st5" d="M569.37,230.43c0.1,4.72,2.41,8.53,5.15,8.47c0.4-0.01,0.79-0.1,1.17-0.29
						c-2.18-0.86-3.87-4.22-3.96-8.24c-0.09-4.04,1.45-7.45,3.59-8.4c-0.39-0.17-0.77-0.25-1.18-0.24
						C571.4,221.8,569.27,225.68,569.37,230.43z"/>
					<path id="XMLID_1062_" class="st6" d="M575.55,235.51c1.02-0.02,1.8-2.26,1.74-5c-0.06-2.74-0.94-4.95-1.96-4.92
						C574.31,225.6,574.52,235.53,575.55,235.51z"/>
				</g>
				<g id="XMLID_1057_">
					<path id="XMLID_1060_" class="st4" d="M524.08,391.18c-3.46,3.24-4.76,7.48-2.88,9.49c1.87,2,6.2,1.01,9.66-2.23
						c3.46-3.24,4.76-7.48,2.88-9.49C531.87,386.95,527.55,387.95,524.08,391.18z"/>
					<path id="XMLID_1059_" class="st5" d="M524.07,391.18c-3.45,3.23-4.76,7.48-2.88,9.49c0.28,0.3,0.6,0.52,0.99,0.68
						c-0.81-2.2,0.57-5.7,3.5-8.44c2.95-2.76,6.52-3.88,8.66-2.92c-0.13-0.4-0.33-0.74-0.61-1.04
						C531.86,386.95,527.54,387.94,524.07,391.18z"/>
					<path id="XMLID_1058_" class="st6" d="M524.41,399.17c0.7,0.75,2.89-0.16,4.89-2.04c2-1.87,3.06-3.99,2.37-4.74
						C530.97,391.65,523.71,398.42,524.41,399.17z"/>
				</g>
				<g id="XMLID_1053_">
					<path id="XMLID_1056_" class="st4" d="M564.9,189.12c0.08,3.55,1.81,6.4,3.86,6.35c2.06-0.04,3.66-2.96,3.58-6.51
						c-0.08-3.55-1.81-6.4-3.86-6.35C566.42,182.65,564.82,185.57,564.9,189.12z"/>
					<path id="XMLID_1055_" class="st5" d="M564.89,189.13c0.08,3.54,1.81,6.4,3.86,6.35c0.3-0.01,0.59-0.07,0.87-0.22
						c-1.63-0.65-2.9-3.16-2.97-6.18c-0.07-3.03,1.09-5.58,2.69-6.3c-0.29-0.13-0.58-0.18-0.88-0.18
						C566.42,182.66,564.81,185.57,564.89,189.13z"/>
					<path id="XMLID_1054_" class="st6" d="M569.52,192.94c0.77-0.02,1.35-1.7,1.31-3.75c-0.04-2.06-0.7-3.71-1.47-3.69
						S568.76,192.95,569.52,192.94z"/>
				</g>
				<g id="XMLID_1049_">
					<path id="XMLID_1052_" class="st4" d="M479.1,414.25c-3.46,0.8-5.89,3.08-5.43,5.08c0.47,2,3.65,2.97,7.11,2.17
						s5.89-3.08,5.43-5.08C485.75,414.42,482.57,413.45,479.1,414.25z"/>
					<path id="XMLID_1051_" class="st5" d="M479.1,414.25c-3.45,0.8-5.89,3.08-5.43,5.08c0.07,0.3,0.19,0.56,0.39,0.81
						c0.3-1.73,2.5-3.49,5.44-4.17c2.95-0.69,5.69-0.08,6.72,1.35c0.07-0.31,0.06-0.61-0.01-0.9
						C485.74,414.41,482.56,413.44,479.1,414.25z"/>
					<path id="XMLID_1050_" class="st6" d="M476.32,419.56c0.17,0.75,1.94,0.97,3.94,0.51c2-0.47,3.49-1.45,3.31-2.19
						C483.4,417.13,476.15,418.81,476.32,419.56z"/>
				</g>
			</g>
			<g id="XMLID_988_">
				<g id="XMLID_1009_">
					<path id="XMLID_1045_" class="st0" d="M121.44,101.14c0.03,3.85,1.59,7.3,4.1,9.81c1.85,1.88,4.23,3.23,6.9,3.81l1.18,0.25
						c0,0,0.23,0.07,0.72,0.16c0.51,0.1,1.2,0.25,2.1,0.52c1.75,0.47,4.29,1.3,6.5,2.67c2.27,1.41,3.7,3.12,4.32,5.25
						c0.64,2.08,1.07,5.61,0.32,10.99c-0.75,5.3-2.68,11.97-5.6,19.03c-1.46,3.53-3.13,7.2-5.03,10.91
						c-0.94,1.87-1.95,3.74-2.97,5.61c-0.94,1.61-2.32,4.2-3.56,6.57c-5,9.61-9.69,19.99-13.69,31.05
						c-2.01,5.57-3.8,11.15-5.43,17.16c-1.56,5.93-2.96,11.53-4.21,17.45c-1.24,5.9-2.28,11.91-3.04,18.08
						c-0.8,6.13-1.31,12.42-1.48,18.85c-0.37,12.78,0.64,26.12,3.77,39.43c3.09,13.27,8.44,26.47,15.77,38.13
						c7.3,11.68,16.46,21.66,25.82,29.43c9.37,7.79,18.89,13.46,27.52,17.66c8.65,4.2,16.47,6.98,23.08,8.92
						c6.59,1.93,12.02,3.03,16.09,3.7c2.03,0.32,3.73,0.54,5.07,0.66c0.79,0.08,1.39,0.13,1.8,0.15c0.35,0.03,0.63,0.03,0.8,0.06
						c0.03-0.02,0.05-0.01,0.05-0.01c15.43,2.02,30.16-3.04,40.89-12.67c8.84-7.91,15.03-18.92,16.67-31.6
						c3.67-28.12-16.15-53.9-44.27-57.56c-3.94-0.5-7.81-0.55-11.58-0.19l-0.42,0.05c0.09,0.03,0.2,0.03,0.35,0.03
						c0.3,0.04,0.32,0.04,0.38,0.09c0.05,0.09-0.13,0.19-0.55,0.3c-0.83,0.21-2.58,0.43-4.97,0.47c-4.78,0.09-11.98-0.56-18.88-3.25
						c-3.46-1.36-6.9-3.2-10.33-6.03c-3.4-2.85-6.79-6.85-9.78-12.29c-3-5.42-5.48-12.29-7.18-20.11
						c-0.86-3.91-1.55-8.06-2.01-12.36c-0.52-4.3-0.8-8.75-0.93-13.32c-0.14-4.52-0.1-9.31,0.15-13.69
						c0.22-4.28,0.67-8.88,1.29-13.3c1.22-8.95,3.15-17.86,5.56-26.48c0.63-2.19,1.17-4.1,2.09-6.95c0.8-2.6,1.54-5.19,2.23-7.78
						c1.38-5.17,2.56-10.34,3.47-15.49c1.84-10.32,2.8-20.65,1.9-31.12c-0.45-5.22-1.44-10.5-3.16-15.62
						c-1.73-5.12-4.27-10.09-7.55-14.29c-3.25-4.21-7.15-7.54-10.89-9.91c-3.77-2.37-7.4-3.83-10.56-4.82
						c-6.38-1.94-11.07-2.24-14.17-2.39c-1.56-0.08-2.71-0.09-3.51-0.07c-0.77,0-1.18,0.01-1.18,0.01
						C127.66,87.11,121.41,93.41,121.44,101.14z"/>
					<path id="XMLID_1042_" class="st1" d="M129.84,112.23c1.16,1.19,2.54,2.13,4.04,2.84c0.12,0.03,0.26,0.08,0.45,0.11
						c0.51,0.1,1.2,0.25,2.1,0.52c0.76,0.2,1.65,0.46,2.61,0.85c0.03-0.02,0.05-0.01,0.07,0.02c0.44,0.08,0.98,0.22,1.62,0.4
						c1.75,0.47,4.29,1.3,6.5,2.67c2.27,1.41,3.7,3.12,4.32,5.25c0.64,2.08,1.07,5.61,0.32,10.99c-0.75,5.3-2.68,11.97-5.6,19.03
						c-1.46,3.53-3.13,7.2-5.03,10.91c-0.94,1.87-1.95,3.74-2.97,5.61c-0.94,1.61-2.32,4.2-3.56,6.57
						c-5,9.61-9.69,19.99-13.69,31.05c-2.01,5.57-3.8,11.15-5.43,17.16c-1.56,5.93-2.96,11.53-4.21,17.45
						c-1.24,5.9-2.28,11.91-3.04,18.07c-0.8,6.13-1.31,12.42-1.48,18.85c-0.37,12.78,0.64,26.12,3.77,39.43
						c3.09,13.27,8.44,26.47,15.77,38.13c7.3,11.68,16.46,21.66,25.82,29.43c9.37,7.79,18.89,13.46,27.52,17.66
						c7.38,3.57,14.14,6.14,20.08,8.01c0.38,0.11,0.75,0.25,1.1,0.33c5.51,1.51,10.13,2.42,13.68,3.01
						c2.03,0.32,3.73,0.54,5.07,0.66c0.79,0.08,1.39,0.13,1.8,0.15c0.35,0.03,0.63,0.03,0.8,0.06c0.03-0.02,0.05-0.01,0.05-0.01
						c14.92,1.95,29.14-2.71,39.76-11.7c-141.53-9.22-136.06-114.93-127.22-147.47c14.17-52.06,38.86-102.91,36.26-128.62
						c-0.97-9.65-8.3-14.33-17.07-16.42c6.75,2.51,11.96,7.1,12.77,15.14c2.6,25.71-22.08,76.56-36.26,128.62
						c-7.55,27.84-12.66,109.26,74.68,137.96c-96.68-25.91-91.5-111.88-83.68-140.64c14.17-52.06,38.86-102.91,36.26-128.62
						c-0.65-6.43-4.12-10.66-8.96-13.4C142.16,111.41,135.16,111.71,129.84,112.23z"/>
					<path id="XMLID_1041_" class="st2" d="M125.54,110.95c1.85,1.88,4.23,3.23,6.9,3.81l1.18,0.25c0,0,0.23,0.07,0.72,0.16
						c0.51,0.1,1.2,0.25,2.1,0.52c1.75,0.47,4.29,1.3,6.5,2.67c2.27,1.41,3.7,3.12,4.32,5.25c0.64,2.08,1.07,5.61,0.32,10.99
						c-0.75,5.3-2.68,11.97-5.6,19.03c-1.46,3.53-3.13,7.2-5.03,10.91c-0.94,1.87-1.95,3.74-2.97,5.61
						c-0.94,1.61-2.32,4.2-3.56,6.57c-5,9.61-9.69,19.99-13.69,31.05c-2.01,5.57-3.8,11.15-5.43,17.16
						c-1.56,5.93-2.96,11.53-4.21,17.45c-1.24,5.9-2.28,11.91-3.04,18.08c-0.8,6.13-1.31,12.42-1.48,18.85
						c-0.37,12.78,0.64,26.12,3.77,39.43c3.09,13.27,8.44,26.47,15.77,38.13c7.3,11.68,16.46,21.66,25.82,29.43
						c9.37,7.79,18.89,13.46,27.52,17.66c8.65,4.2,16.47,6.98,23.08,8.92c6.59,1.93,12.02,3.03,16.09,3.7
						c2.03,0.32,3.73,0.54,5.07,0.66c0.79,0.08,1.39,0.13,1.8,0.15c0.35,0.03,0.63,0.03,0.8,0.06c0.03-0.02,0.05-0.01,0.05-0.01
						c15.43,2.02,30.16-3.04,40.89-12.67c-147.1-6.83-141.61-114.84-132.66-147.78c14.17-52.06,38.86-102.91,36.26-128.62
						C164.96,109.71,139.44,109.61,125.54,110.95z"/>
					<path id="XMLID_1040_" class="st3" d="M147.1,111.37c5.75,2.68,10.01,7.11,10.74,14.31c2.6,25.71-22.08,76.56-36.26,128.62
						c-7.82,28.75-13,114.73,83.68,140.64c-87.33-28.71-82.22-110.13-74.68-137.96c14.17-52.06,38.86-102.91,36.26-128.62
						C165.78,117.73,157.01,113.13,147.1,111.37z"/>
					<path id="XMLID_1039_" class="st1" d="M135.39,87.07c0,0,0.41-0.01,1.18-0.01c0.8-0.02,1.95-0.01,3.51,0.07
						c3.1,0.15,7.8,0.45,14.17,2.39c3.16,0.99,6.79,2.45,10.56,4.82c3.75,2.37,7.64,5.7,10.89,9.91c3.28,4.2,5.82,9.17,7.55,14.29
						c1.73,5.12,2.72,10.4,3.16,15.62c0.91,10.47-0.06,20.8-1.9,31.12c-0.91,5.15-2.09,10.32-3.47,15.49
						c-0.69,2.58-1.43,5.18-2.23,7.78c-0.92,2.85-1.46,4.76-2.09,6.95c-2.41,8.62-4.34,17.54-5.56,26.48
						c-0.62,4.42-1.07,9.02-1.29,13.3c-0.25,4.38-0.29,9.17-0.15,13.69c0.13,4.56,0.42,9.02,0.93,13.32
						c0.46,4.31,1.15,8.45,2.01,12.36c1.7,7.82,4.18,14.69,7.18,20.11c2.99,5.44,6.38,9.44,9.78,12.29
						c3.43,2.83,6.87,4.67,10.33,6.03c6.9,2.69,14.1,3.34,18.88,3.25c2.39-0.03,4.14-0.25,4.97-0.47c0.42-0.11,0.6-0.21,0.55-0.3
						c-0.06-0.04-0.09-0.05-0.38-0.09c-0.15,0.01-0.26,0-0.35-0.03l0.42-0.05c3.77-0.37,7.64-0.32,11.58,0.19
						c28.12,3.67,47.93,29.44,44.27,57.56c-1.64,12.68-7.82,23.69-16.67,31.6c-4.43,3.98-9.54,7.17-15.09,9.41
						c1.68-1.17,3.29-2.45,4.81-3.81c8.83-7.94,15.03-18.94,16.65-31.63c3.67-28.12-16.15-53.9-44.25-57.55
						c-3.94-0.51-7.81-0.55-11.59-0.17l-0.45,0.05c0.12,0.03,0.2,0.01,0.36,0c0.3,0.04,0.34,0.05,0.38,0.09
						c0.07,0.1-0.11,0.2-0.55,0.3c-0.84,0.24-2.56,0.44-4.95,0.48c-4.81,0.08-11.99-0.54-18.89-3.23c-3.46-1.36-6.9-3.2-10.32-6.06
						c-3.43-2.83-6.79-6.85-9.78-12.29c-3.02-5.42-5.49-12.27-7.18-20.11c-0.15-0.65-0.25-1.34-0.39-2
						c-0.25,0.14-0.5,0.28-0.78,0.32c-2.9,0.45-6.13-4.89-7.21-11.91c-1.08-7.03,0.39-13.08,3.29-13.53
						c0.71-0.11,1.43,0.14,2.15,0.66c-0.13-4.29-0.08-8.76,0.14-12.91c0.24-4.25,0.69-8.87,1.29-13.3
						c1.22-8.95,3.15-17.84,5.56-26.48c0.65-2.19,1.19-4.1,2.09-6.95c0.8-2.6,1.53-5.17,2.26-7.77c1.38-5.17,2.55-10.32,3.47-15.47
						c1.81-10.33,2.81-20.67,1.9-31.12c-0.47-5.23-1.45-10.53-3.16-15.62c-1.72-5.14-4.26-10.11-7.57-14.32
						c-3.25-4.21-7.15-7.54-10.88-9.88c-3.77-2.37-7.42-3.86-10.56-4.85c-6.41-1.93-11.11-2.22-14.17-2.39
						c-1.57-0.06-2.73-0.1-3.53-0.08c-0.74,0.01-1.19,0.03-1.19,0.03c-0.28-0.01-0.57,0.01-0.84,0.06
						C126.77,89.3,130.8,87.09,135.39,87.07z"/>
					<path id="XMLID_1038_" class="st1" d="M153.89,275.25c-1.21,0.19-1.82,2.71-1.37,5.63c0.45,2.92,1.79,5.14,3,4.96
						c1.21-0.19,1.82-2.71,1.37-5.63C156.44,277.28,155.1,275.06,153.89,275.25z"/>
					<g id="XMLID_1034_">
						<path id="XMLID_1037_" class="st4" d="M111.87,265.6c-1.07,7.94-5.66,13.87-10.25,13.26c-4.59-0.62-7.45-7.55-6.38-15.49
							c1.07-7.94,5.66-13.87,10.25-13.26C110.08,250.72,112.93,257.66,111.87,265.6z"/>
						<path id="XMLID_1036_" class="st5" d="M111.88,265.61c-1.06,7.92-5.65,13.88-10.25,13.26c-0.68-0.09-1.3-0.31-1.9-0.7
							c3.82-1.04,7.29-6.35,8.2-13.08c0.91-6.76-1.04-12.78-4.45-14.79c0.68-0.22,1.34-0.27,2.02-0.18
							C110.09,250.74,112.95,257.66,111.88,265.61z"/>
						<path id="XMLID_1035_" class="st6" d="M100.54,272.97c-1.71-0.23-2.6-4.14-1.98-8.73c0.62-4.59,2.51-8.13,4.22-7.9
							C104.49,256.57,102.26,273.2,100.54,272.97z"/>
					</g>
					<g id="XMLID_1030_">
						<path id="XMLID_1033_" class="st4" d="M117.02,225.15c-1.93,6.02-6.32,10-9.81,8.88c-3.48-1.12-4.74-6.91-2.81-12.93
							c1.93-6.02,6.32-10,9.81-8.88C117.69,213.34,118.95,219.13,117.02,225.15z"/>
						<path id="XMLID_1032_" class="st5" d="M117.03,225.16c-1.93,6-6.32,10-9.81,8.88c-0.51-0.16-0.97-0.42-1.38-0.81
							c3.12-0.27,6.55-3.93,8.19-9.03c1.65-5.13,0.97-10.08-1.41-12.11c0.56-0.07,1.08-0.02,1.6,0.14
							C117.7,213.35,118.96,219.13,117.03,225.16z"/>
						<path id="XMLID_1031_" class="st6" d="M107.2,229.31c-1.3-0.42-1.45-3.58-0.33-7.06c1.12-3.48,3.08-5.97,4.37-5.55
							C112.54,217.11,108.49,229.73,107.2,229.31z"/>
					</g>
					<g id="XMLID_1026_">
						<path id="XMLID_1029_" class="st4" d="M112.79,317.78c0.55,6.3-1.95,11.67-5.6,11.99c-3.64,0.32-7.05-4.53-7.6-10.83
							c-0.55-6.3,1.95-11.67,5.6-11.99C108.83,306.63,112.23,311.48,112.79,317.78z"/>
						<path id="XMLID_1028_" class="st5" d="M112.8,317.79c0.55,6.28-1.95,11.67-5.6,11.99c-0.54,0.05-1.06-0.02-1.59-0.21
							c2.77-1.46,4.52-6.16,4.05-11.5c-0.47-5.37-3.01-9.66-5.99-10.62c0.49-0.29,0.99-0.44,1.53-0.49
							C108.84,306.64,112.24,311.48,112.8,317.79z"/>
						<path id="XMLID_1027_" class="st6" d="M105.34,325.42c-1.36,0.12-2.72-2.74-3.04-6.38c-0.32-3.64,0.52-6.7,1.88-6.82
							C105.54,312.1,106.7,325.3,105.34,325.42z"/>
					</g>
					<g id="XMLID_1022_">
						<path id="XMLID_1025_" class="st4" d="M129.75,192.24c-1.45,4.51-4.74,7.49-7.35,6.66c-2.61-0.84-3.55-5.18-2.11-9.69
							c1.45-4.51,4.74-7.49,7.35-6.66C130.25,183.38,131.2,187.72,129.75,192.24z"/>
						<path id="XMLID_1024_" class="st5" d="M129.75,192.25c-1.44,4.5-4.74,7.5-7.35,6.66c-0.38-0.12-0.73-0.32-1.04-0.61
							c2.34-0.21,4.91-2.94,6.14-6.77c1.23-3.85,0.72-7.55-1.06-9.08c0.42-0.06,0.81-0.02,1.2,0.11
							C130.26,183.39,131.2,187.73,129.75,192.25z"/>
						<path id="XMLID_1023_" class="st6" d="M122.39,195.35c-0.97-0.31-1.08-2.68-0.25-5.29s2.31-4.47,3.28-4.16
							C126.39,186.21,123.36,195.67,122.39,195.35z"/>
					</g>
					<g id="XMLID_1018_">
						<path id="XMLID_1021_" class="st4" d="M127.43,359.24c2.4,4.09,2.43,8.53,0.07,9.92c-2.36,1.39-6.23-0.8-8.63-4.89
							c-2.4-4.09-2.43-8.53-0.07-9.92C121.16,352.96,125.03,355.15,127.43,359.24z"/>
						<path id="XMLID_1020_" class="st5" d="M127.44,359.24c2.39,4.07,2.43,8.53,0.06,9.92c-0.35,0.2-0.72,0.33-1.14,0.37
							c1.4-1.88,1.08-5.62-0.96-9.09c-2.05-3.48-5.15-5.57-7.47-5.26c0.24-0.35,0.53-0.61,0.88-0.82
							C121.17,352.97,125.03,355.15,127.44,359.24z"/>
						<path id="XMLID_1019_" class="st6" d="M124.84,366.81c-0.88,0.52-2.72-0.98-4.11-3.34c-1.39-2.36-1.8-4.7-0.92-5.22
							C120.7,357.73,125.73,366.29,124.84,366.81z"/>
					</g>
					<g id="XMLID_1014_">
						<path id="XMLID_1017_" class="st4" d="M145.79,153.92c-1.09,3.38-3.55,5.62-5.51,4.99c-1.96-0.63-2.66-3.88-1.58-7.26
							c1.09-3.38,3.55-5.62,5.51-4.99C146.17,147.28,146.88,150.54,145.79,153.92z"/>
						<path id="XMLID_1016_" class="st5" d="M145.8,153.93c-1.08,3.37-3.55,5.62-5.51,4.99c-0.29-0.09-0.54-0.24-0.78-0.46
							c1.75-0.15,3.68-2.21,4.6-5.08c0.92-2.88,0.54-5.66-0.79-6.81c0.32-0.04,0.61-0.01,0.9,0.08
							C146.17,147.29,146.88,150.54,145.8,153.93z"/>
						<path id="XMLID_1015_" class="st6" d="M140.27,156.26c-0.73-0.23-0.81-2.01-0.19-3.97c0.63-1.96,1.73-3.35,2.46-3.12
							C143.27,149.4,141,156.49,140.27,156.26z"/>
					</g>
					<g id="XMLID_1010_">
						<path id="XMLID_1013_" class="st4" d="M163.98,394.15c3.09,1.76,4.77,4.63,3.76,6.42c-1.02,1.79-4.34,1.81-7.43,0.06
							c-3.09-1.76-4.77-4.63-3.76-6.42C157.57,392.42,160.89,392.4,163.98,394.15z"/>
						<path id="XMLID_1012_" class="st5" d="M163.99,394.15c3.08,1.75,4.77,4.63,3.75,6.42c-0.15,0.26-0.34,0.48-0.61,0.67
							c0.21-1.75-1.41-4.06-4.02-5.54c-2.63-1.5-5.43-1.69-6.82-0.62c0.02-0.32,0.11-0.6,0.26-0.86
							C157.57,392.42,160.9,392.39,163.99,394.15z"/>
						<path id="XMLID_1011_" class="st6" d="M165.14,400.04c-0.38,0.67-2.13,0.38-3.92-0.63c-1.79-1.02-2.93-2.38-2.55-3.05
							C159.05,395.69,165.52,399.37,165.14,400.04z"/>
					</g>
				</g>
				<path id="XMLID_989_" class="st0" d="M122.42,93.67c-0.06-0.01,0.36,0.06,0.48,0.1c0.13,0.05,0.33,0.14,0.93,0.22
					c1.04,0.19,2.68,0.35,4.65,0.41c0.97-0.02,2.07,0.02,3.16-0.1c1.14-0.04,2.25-0.24,3.44-0.43c1.17-0.21,2.32-0.53,3.49-0.88
					c1.08-0.45,2.33-0.79,3.31-1.43c0.52-0.29,1.1-0.54,1.61-0.87l1.44-1.07c1.07-0.63,1.74-1.63,2.64-2.44
					c0.47-0.39,0.81-0.89,1.13-1.38c0.35-0.49,0.68-0.97,1.01-1.44c0.76-0.89,1.1-2.01,1.6-2.95c0.44-0.97,0.99-1.81,1.18-2.72
					c0.27-0.87,0.5-1.64,0.69-2.27c0.4-1.28,0.63-2.01,0.63-2.01l0.3-0.97c1.01-3.21,4.43-5,7.64-3.99
					c2.68,0.84,4.37,3.37,4.27,6.04c0,0-0.04,0.99-0.1,2.73c-0.04,0.88-0.09,1.95-0.14,3.17c0.02,1.23-0.35,2.63-0.62,4.17
					c-0.34,1.53-0.5,3.25-1.22,4.99c-0.32,0.88-0.64,1.79-0.98,2.72c-0.33,0.94-0.69,1.89-1.23,2.79c-1.04,1.81-1.95,3.86-3.42,5.58
					c-0.7,0.89-1.41,1.79-2.11,2.7c-0.76,0.86-1.61,1.62-2.43,2.44c-1.63,1.69-3.5,2.96-5.33,4.32c-1.86,1.22-3.78,2.35-5.67,3.28
					c-1.9,0.89-3.76,1.74-5.56,2.33c-1.79,0.69-3.51,1.13-5.11,1.58c-3.2,0.8-5.91,1.26-7.93,1.46c-0.93,0.12-1.92,0.17-2.61,0.2
					c-0.5,0.03-0.77,0.04-0.77,0.04c-7.27-0.45-12.79-6.7-12.34-13.97C108.9,98.75,115.15,93.22,122.42,93.67z"/>
			</g>
			<path id="XMLID_987_" class="st7" d="M64.09,212.36c-0.27-0.1-0.61-0.29-0.96-0.51c0.59,0.32,1.23,0.56,1.86,0.78
				C64.87,212.63,64.6,212.58,64.09,212.36z"/>
			<path id="XMLID_986_" class="st7" d="M689.07,210.79c0.71-0.22,1.37-0.49,2.01-0.81c-0.29,0.17-0.74,0.49-1.1,0.56
				C689.36,210.79,689.07,210.79,689.07,210.79z"/>
			<g id="XMLID_747_">
				<path id="XMLID_981_" class="st7" d="M692.94,252.65c-1.23-11.87-2.16-22.02-2.3-29.69c-0.07-3.82,0.02-7.01,0.25-9.32
					c0.02-0.37,0.07-0.69,0.12-1.01c0.22-1.67,0.49-2.55,0.42-2.72c0-0.05-0.07-0.05-0.15-0.02c5.88-3.06,8.73-10.22,6.01-16.72
					c-2.33-5.61-8.38-8.61-14.29-7.77c-0.37,0.05-0.76,0.12-1.13,0.22c-0.37,0.07-0.74,0.17-1.1,0.29l-0.49,0.15
					c-0.74,0.22-1.79,0.64-3.16,1.32c-2.7,1.32-6.4,4.27-8.85,8.02c-0.17,0.25-0.34,0.51-0.49,0.76c-2.28,3.56-3.75,7.45-4.88,11.43
					c-1.18,4.27-1.99,8.78-2.57,13.58c-1.15,9.59-1.59,20.47-2.04,32.63c-0.39,12.16-0.86,25.6-1.69,39.96
					c-0.86,14.34-2.33,29.59-5.08,45.09c-2.7,15.47-6.87,31.14-13.29,45.6c-6.33,14.49-14.98,27.56-25.99,37.93
					c-11.03,10.37-24.3,18.41-39.4,23.86c-3.78,1.37-7.65,2.6-11.6,3.68c-1.96,0.54-3.95,1.03-5.96,1.52l-3.02,0.69l-2.8,0.56
					c-1.42,0.27-2.82,0.51-4.22,0.78c4.54-1.79,9.22-3.85,13.97-6.25c9.56-4.9,19.49-11.33,28.54-19.79
					c9.07-8.39,17.11-18.88,22.78-30.45c5.71-11.55,9.1-23.93,10.44-35.8c0.71-5.96,0.98-11.82,0.91-17.53
					c-0.1-2.84-0.15-5.69-0.37-8.46l-0.34-4.29l-0.42-3.58c-0.64-5.49-1.47-10.79-2.55-16.03c-1.08-5.27-2.45-10.54-4.22-15.74
					c-3.51-10.35-8.73-20.82-16.97-29.32c-4.12-4.22-8.95-7.77-14.05-10.27c-5.1-2.53-10.35-4-15.23-4.63
					c-9.83-1.3-18.04,0.15-24.74,1.91c-6.69,1.84-12.01,4.12-16.26,6.2c-8.46,4.17-12.68,7.4-12.99,7.55
					c-4.46,2.67-5.91,8.46-3.24,12.92c2.67,4.46,8.43,5.93,12.92,3.26c0.12,0,4.09-1.89,11.01-3.75c3.63-0.96,8.09-1.89,12.97-2.21
					c4.85-0.34,10.13,0.02,14.54,1.69c4.44,1.67,7.62,4.34,10.15,8.53c2.53,4.19,4.39,10.2,5.27,17.36
					c0.44,3.58,0.69,7.38,0.69,11.35c0.02,4.02-0.15,8.12-0.47,12.11l-0.27,3.58l-0.34,2.84c-0.22,2.04-0.59,3.97-0.91,5.93
					c-0.71,3.87-1.67,7.62-2.8,11.13c-2.3,7.06-5.57,13.12-9.44,17.97c-3.9,4.88-8.41,8.63-13.44,11.6
					c-9.98,5.91-22.19,8.65-33.27,9.64c-3.96,0.35-8.73,0.38-13.24,0.26c-17.95-0.45-33.69-12.68-37.86-30.14
					c-0.03-0.12-0.06-0.25-0.09-0.37c-4.22-17.95-0.91-36.78,7.92-52.93c44.5-81.45,24.98-133.74,24.98-133.74
					c-10.81-74.24-75.61-96.16-114.64-102.61c0,0,0,0-0.02,0c-14.91-2.48-26.06-2.7-29-2.7h-0.61c-5-0.05-128.94,0.02-144.26,105.3
					c0,0-19.54,52.3,24.98,133.74c8.83,16.16,12.11,34.99,7.92,52.93c-2.89,12.28-10.64,25.4-23.39,30.72
					c-2.87-0.05-5.86-0.2-8.97-0.47c-11.08-0.98-23.29-3.73-33.27-9.64c-5-2.97-9.51-6.72-13.41-11.6
					c-3.87-4.85-7.16-10.91-9.44-17.97c-1.15-3.51-2.08-7.26-2.82-11.13c-0.29-1.96-0.69-3.9-0.88-5.93l-0.34-2.84l-0.27-3.58
					c-0.32-4-0.51-8.09-0.49-12.11c0.02-3.97,0.27-7.77,0.71-11.35c0.86-7.16,2.75-13.17,5.27-17.36s5.71-6.86,10.15-8.53
					c4.39-1.67,9.68-2.04,14.54-1.69c4.85,0.32,9.32,1.25,12.95,2.21c0.66,0.17,1.28,0.34,1.86,0.51c5.79,1.69,9.05,3.24,9.17,3.24
					c1.84,1.1,3.92,1.5,5.91,1.25c2.82-0.32,5.44-1.91,7.01-4.51c2.67-4.46,1.23-10.25-3.24-12.92c-0.27-0.12-3.31-2.43-9.32-5.66
					c-1.13-0.59-2.35-1.23-3.68-1.89c-4.24-2.08-9.56-4.36-16.28-6.2c-6.67-1.77-14.88-3.21-24.71-1.91
					c-4.88,0.64-10.15,2.11-15.23,4.63c-5.1,2.5-9.95,6.06-14.05,10.27c-8.24,8.51-13.46,18.98-16.97,29.32
					c-1.77,5.2-3.16,10.47-4.24,15.74c-1.08,5.25-1.89,10.54-2.53,16.03l-0.42,3.58l-0.34,4.29c-0.25,2.77-0.29,5.61-0.37,8.46
					c-0.07,5.71,0.2,11.57,0.91,17.53c1.35,11.87,4.73,24.25,10.42,35.8c5.66,11.57,13.73,22.07,22.78,30.45
					c9.07,8.46,18.96,15.06,28.54,19.96c0.07,0.02,0.12,0.05,0.2,0.07c0,0-0.02,0-0.05,0c-1.69-0.29-3.58-0.74-5.49-1.18
					c-7.48-1.79-14.66-4.2-21.38-6.99c-13.48-5.61-24.74-13.44-33.54-23.51c-8.8-10.08-15-22.83-18.85-36.9
					c-3.92-14.05-5.57-29.18-5.91-43.91c-0.42-14.74,0.32-29.18,1.45-42.64c1.13-13.51,2.5-26.09,3.7-37.51
					c1.18-11.43,2.06-21.7,2.11-30.89c0.05-4.63-0.2-9.02-0.86-13.31c-0.66-4.27-1.84-8.7-4.27-12.82
					c-0.81-1.37-1.77-2.67-2.82-3.82c-0.22-0.25-0.44-0.49-0.66-0.71c-0.29-0.29-0.59-0.59-0.88-0.86c-1.62-1.5-3.26-2.53-4.61-3.21
					c-1.35-0.69-2.38-1.08-3.06-1.3l-0.51-0.15c-0.39-0.12-0.76-0.22-1.15-0.32c-6.23-1.37-12.85,1.64-15.35,7.63
					c-2.5,6.03-0.2,12.65,4.88,16.01c-0.02,0.34,0.05,1.1-0.02,2.38c-0.05,1.96-0.34,4.85-0.88,8.36c-0.27,1.74-0.61,3.63-1.03,5.64
					v0.02c-1.2,6.06-2.94,13.31-4.98,21.45c-2.67,10.89-5.93,23.41-8.97,37.46c-3.02,14.07-5.98,29.67-7.65,46.8
					c-1.62,17.14-2.06,35.92,0.96,56.05c1.52,10.05,4.07,20.37,7.87,30.7c3.78,10.32,8.92,20.59,15.47,30.18
					c6.55,9.59,14.44,18.51,23.29,26.14c8.83,7.67,18.49,14.17,28.44,19.59c9.95,5.39,20.18,9.71,30.4,13.26
					c2.55,0.86,5.07,1.72,7.89,2.55c3.14,0.93,4.22,1.3,7.43,2.16c4.9,1.3,9.81,2.57,14.81,3.68c19.93,4.41,40.77,7.38,62.54,6.28
					c10.86-0.56,21.94-2.13,32.95-5.1c10.98-2.89,21.89-7.36,31.87-13.31c10-5.91,19.03-13.31,26.55-21.38
					c1.62-1.74,3.09-3.46,4.44-5.12l0.02-0.02c0.02-0.02,0.02-0.02,0.05-0.05c0.37-0.47,0.74-0.96,1.1-1.42
					c0.37-0.47,0.71-0.93,1.05-1.42c0.69-0.93,1.35-1.86,1.96-2.8c0.93-1.35,1.79-2.72,2.65-4.07c0.32-0.54,0.64-1.08,0.96-1.62
					c0.47-0.78,0.91-1.54,1.35-2.33c2.77-4.88,9.49-4.9,12.85-0.42c0.05,0.02,0.07,0.07,0.1,0.1c1.91,2.48,3.92,4.93,6.08,7.36
					l0.37,0.44c10.69,12.19,24.1,23.83,39.99,33.2c19.2,11.45,41.88,18.78,64.58,21.53c22.78,2.89,45.58,1.35,67.3-2.5
					c10.89-1.94,21.6-4.51,31.92-7.55l4.36-1.32l4.09-1.35c2.72-0.93,5.42-1.89,8.14-2.94c5.39-2.06,10.76-4.34,16.08-6.89
					c21.18-10.08,41.39-24.66,56.76-42.93c7.7-9.07,14.24-18.88,19.59-28.93c5.32-10.05,9.49-20.35,12.7-30.5
					c6.33-20.37,9-40.14,10.1-58.38c1.05-18.27,0.42-35.16-0.54-50.46C695.74,278.27,694.14,264.56,692.94,252.65z M64.09,212.36
					c-0.27-0.1-0.61-0.29-0.96-0.51c0.59,0.32,1.23,0.56,1.86,0.78C64.87,212.63,64.6,212.58,64.09,212.36z M689.07,210.79
					c0.71-0.22,1.37-0.49,2.01-0.81c-0.29,0.17-0.74,0.49-1.1,0.56C689.36,210.79,689.07,210.79,689.07,210.79z"/>
				<path id="XMLID_977_" class="st2" d="M318.04,489.41c-9.98,5.96-20.89,10.42-31.87,13.31c-11.01,2.97-22.09,4.54-32.95,5.1
					c-21.77,1.1-42.61-1.86-62.54-6.28c-5-1.1-9.91-2.38-14.81-3.68c-3.21-0.86-4.29-1.23-7.43-2.16c-2.82-0.83-5.34-1.69-7.89-2.55
					c-10.22-3.56-20.45-7.87-30.4-13.26c-9.95-5.42-19.61-11.92-28.44-19.59c-8.85-7.62-16.75-16.55-23.29-26.14
					c-6.55-9.59-11.69-19.86-15.47-30.18c-3.8-10.32-6.35-20.64-7.87-30.7c-3.02-20.13-2.57-38.91-0.96-56.05
					c1.67-17.14,4.63-32.73,7.65-46.8c0.02-0.1,0.05-0.22,0.07-0.37c0.64-2.97,1.3-5.84,1.96-8.65c1.47-6.4,2.97-12.43,4.36-18.09
					c0.91-3.6,1.77-7.04,2.57-10.35c2.03-8.14,3.78-15.4,4.98-21.45v-0.02c0.42-2.01,0.76-3.9,1.03-5.64
					c0.54-3.51,0.83-6.4,0.88-8.36c0.07-1.27,0-2.03,0.02-2.38c-2.75-1.81-4.66-4.58-5.47-7.7c-6.23-1.37-12.85,1.64-15.35,7.63
					c-2.5,6.03-0.2,12.65,4.88,16.01c-0.02,0.34,0.05,1.1-0.02,2.38c-0.05,1.96-0.34,4.85-0.88,8.36c-0.27,1.74-0.61,3.63-1.03,5.64
					v0.02c-1.2,6.06-2.94,13.31-4.98,21.45c-2.67,10.89-5.93,23.41-8.97,37.46c-3.02,14.07-5.98,29.67-7.65,46.8
					c-1.62,17.14-2.06,35.92,0.96,56.05c1.52,10.05,4.07,20.37,7.87,30.7c3.78,10.32,8.92,20.59,15.47,30.18
					c6.55,9.59,14.44,18.51,23.29,26.14c8.83,7.67,18.49,14.17,28.44,19.59c9.95,5.39,20.18,9.71,30.4,13.26
					c2.55,0.86,5.07,1.72,7.89,2.55c3.14,0.93,4.22,1.3,7.43,2.16c4.9,1.3,9.81,2.57,14.81,3.68c19.93,4.41,40.77,7.38,62.54,6.28
					c10.86-0.56,21.94-2.13,32.95-5.1c0.29-0.07,0.56-0.15,0.86-0.25c10.69-2.89,21.31-7.26,31.01-13.07
					c10-5.91,19.03-13.31,26.55-21.38c1.64-1.77,3.14-3.51,4.51-5.2C328.46,482.67,323.39,486.25,318.04,489.41z M65,212.63
					c-0.12,0-0.39-0.05-0.91-0.27c-0.27-0.1-0.61-0.29-0.96-0.51C63.72,212.17,64.36,212.41,65,212.63z"/>
				<path id="XMLID_976_" class="st3" d="M333.17,478.77c-1.37,1.69-2.87,3.43-4.51,5.2c-7.53,8.07-16.55,15.47-26.55,21.38
					c-9.71,5.81-20.33,10.17-31.01,13.07c-63.72,10.42-138.18-21.8-187.39-64.97c-63.35-55.56-29.99-181.65-23.19-204.72
					c-0.51,2.99,4.12-3.75,7.65-5.39c-1.4,5.66-2.89,11.69-4.36,18.09c-0.66,2.82-1.32,5.69-1.96,8.65
					c-0.02,0.15-0.05,0.27-0.07,0.37c-3.02,14.07-5.98,29.67-7.65,46.8c-1.62,17.14-2.06,35.92,0.96,56.05
					c1.52,10.05,4.07,20.37,7.87,30.7c3.78,10.32,8.92,20.59,15.47,30.18c6.55,9.59,14.44,18.51,23.29,26.14
					c8.83,7.67,18.49,14.17,28.44,19.59c9.95,5.39,20.18,9.71,30.4,13.26c2.55,0.86,5.07,1.72,7.89,2.55
					c3.14,0.93,4.22,1.3,7.43,2.16c4.9,1.3,9.81,2.57,14.81,3.68c19.93,4.41,40.77,7.38,62.54,6.28c10.86-0.56,21.94-2.13,32.95-5.1
					c10.98-2.89,21.89-7.36,31.87-13.31C323.39,486.25,328.46,482.67,333.17,478.77z"/>
				<path id="XMLID_975_" class="st8" d="M677.81,237.52c-1.23-11.87-2.16-22.02-2.3-29.69v-0.61c-0.07-3.56,0.02-6.52,0.25-8.7
					c0.02-0.37,0.07-0.69,0.12-1.01c0.22-1.67,0.49-2.55,0.42-2.72c0-0.05-0.07-0.05-0.15-0.02c3.68-1.91,6.15-5.42,6.84-9.37
					c-0.37,0.05-0.76,0.12-1.13,0.22c-0.37,0.07-0.74,0.17-1.1,0.29l-0.49,0.15c-0.74,0.22-1.79,0.64-3.16,1.32
					c-2.7,1.32-6.4,4.27-8.85,8.02c-0.17,0.25-0.34,0.51-0.49,0.76c0.2,7.6,1.1,17.53,2.3,29.1c1.2,11.92,2.8,25.62,3.78,40.92
					c0.96,15.3,1.59,32.19,0.54,50.46c-1.1,18.24-3.78,38-10.1,58.38c-3.21,10.15-7.38,20.45-12.7,30.5
					c-5.34,10.05-11.89,19.86-19.59,28.93c-15.37,18.27-35.58,32.85-56.76,42.93c-5.32,2.55-10.69,4.83-16.08,6.89
					c-2.72,1.05-5.42,2.01-8.14,2.94l-4.09,1.35l-4.36,1.32c-10.32,3.04-21.04,5.61-31.92,7.55c-3.38,0.6-6.79,1.12-10.22,1.6
					c0.04-0.28,0.09-0.55,0.09-0.84c0-6.45-11.16-11.67-24.93-11.67c-13.77,0-24.93,5.23-24.93,11.67c0,0.88,0.23,1.74,0.62,2.56
					c-2.65-0.22-5.29-0.48-7.94-0.82c-22.7-2.75-45.38-10.08-64.58-21.53c-0.2-0.1-0.37-0.22-0.56-0.32
					c-7.4-4.41-11.96-12.28-12.75-20.89c-0.42-4.51-1.45-9.41-2.75-14.24c-2.06-7.62-12.04-8.38-15.67-2.28
					c-1.27,2.13-2.4,4.34-3.87,6.35c-4.41,6.01-12.7,16.84-16.52,19.1c-9.98,5.96-20.89,10.42-31.87,13.31
					c-1.48,0.4-2.96,0.71-4.45,1.06c0.1-0.5,0.16-1,0.16-1.51c0-8.35-14.45-15.12-32.28-15.12c-17.83,0-32.28,6.77-32.28,15.12
					c0,1.44,0.46,2.82,1.26,4.14c-9.49-1.16-18.8-2.85-27.91-4.87c-4.97-1.1-9.84-2.36-14.71-3.65c0.37-0.47,0.64-0.99,0.8-1.56
					c1.32-4.78-5.89-10.94-16.1-13.75c-9.32-2.57-17.89-1.46-20.33,2.39c-3.42-1.59-6.83-3.25-10.2-5.08
					c-9.95-5.42-19.61-11.92-28.44-19.59c-8.85-7.62-16.75-16.55-23.29-26.14c-6.55-9.59-11.69-19.86-15.47-30.18
					c-3.8-10.32-6.35-20.64-7.87-30.7c-3.02-20.13-2.57-38.91-0.96-56.05c1.67-17.14,4.63-32.73,7.65-46.8
					c3.04-14.05,6.3-26.58,8.97-37.46c1.42-5.71,2.72-10.98,3.75-15.72c-0.22-0.25-0.44-0.49-0.66-0.71
					c-0.29-0.29-0.59-0.59-0.88-0.86c-1.62-1.5-3.26-2.53-4.61-3.21c-1.35-0.69-2.38-1.08-3.06-1.3l-0.51-0.15
					c-0.39-0.12-0.76-0.22-1.15-0.32c0.81,3.11,2.72,5.88,5.47,7.7c-0.02,0.34,0.05,1.1-0.02,2.38c-0.05,1.96-0.34,4.85-0.88,8.36
					c-0.27,1.74-0.61,3.63-1.03,5.64v0.02c-1.2,6.06-2.94,13.31-4.98,21.45c-0.81,3.31-1.67,6.74-2.57,10.35
					c-1.4,5.66-2.89,11.69-4.36,18.09c-0.66,2.82-1.32,5.69-1.96,8.65c-0.02,0.15-0.05,0.27-0.07,0.37
					c-3.02,14.07-5.98,29.67-7.65,46.8c-1.62,17.14-2.06,35.92,0.96,56.05c1.52,10.05,4.07,20.37,7.87,30.7
					c3.78,10.32,8.92,20.59,15.47,30.18c6.55,9.59,14.44,18.51,23.29,26.14c8.83,7.67,18.49,14.17,28.44,19.59
					c9.95,5.39,20.18,9.71,30.4,13.26c2.55,0.86,5.07,1.72,7.89,2.55c3.14,0.93,4.22,1.3,7.43,2.16c4.9,1.3,9.81,2.57,14.81,3.68
					c19.93,4.41,40.77,7.38,62.54,6.28c10.86-0.56,21.94-2.13,32.95-5.1c10.98-2.89,21.89-7.36,31.87-13.31
					c5.32-3.16,10.37-6.72,15.05-10.57l0.02-0.02c0.02-0.02,0.02-0.02,0.05-0.05c0.37-0.47,0.74-0.96,1.1-1.42
					c0.37-0.47,0.71-0.93,1.05-1.42c0.69-0.93,1.35-1.86,1.96-2.8c0.93-1.35,1.79-2.72,2.65-4.07c0.32-0.54,0.64-1.08,0.96-1.62
					c0.47-0.78,0.91-1.54,1.35-2.33c2.77-4.88,9.49-4.9,12.85-0.42c0.05,0.02,0.07,0.07,0.1,0.1c1.91,2.48,3.92,4.93,6.08,7.36
					l0.37,0.44c7.43,6.57,15.74,12.7,24.86,18.07c19.2,11.45,41.88,18.78,64.58,21.53c22.78,2.89,45.58,1.35,67.3-2.5
					c10.89-1.94,21.6-4.51,31.92-7.55l4.36-1.32l4.09-1.35c2.72-0.93,5.42-1.89,8.14-2.94c5.39-2.06,10.76-4.34,16.08-6.89
					c21.18-10.08,41.39-24.66,56.76-42.93c7.7-9.07,14.24-18.88,19.59-28.93c5.32-10.05,9.49-20.35,12.7-30.5
					c6.33-20.37,9-40.14,10.1-58.38c1.05-18.27,0.42-35.16-0.54-50.46C680.61,263.14,679.01,249.43,677.81,237.52z"/>
				<ellipse id="XMLID_974_" class="st8" cx="502.14" cy="480.21" rx="8.58" ry="4.02"/>
				<path id="XMLID_973_" class="st8" d="M306,458.14c0,4.06-4.21,7.36-9.4,7.36c-5.19,0-9.4-3.29-9.4-7.36
					c0-4.06,4.21-7.36,9.4-7.36C301.79,450.79,306,454.08,306,458.14z"/>
				<path id="XMLID_972_" class="st8" d="M222.77,471.63c0,2.71-2.81,4.9-6.27,4.9c-3.46,0-6.27-2.2-6.27-4.9s2.81-4.9,6.27-4.9
					C219.97,466.73,222.77,468.92,222.77,471.63z"/>
				<g id="XMLID_931_">
					<g id="XMLID_968_">
						<path id="XMLID_971_" class="st4" d="M79.98,456.59c5.19,6.1,6.54,13.48,3.01,16.48c-3.53,3-10.6,0.49-15.79-5.61
							c-5.19-6.1-6.54-13.48-3.01-16.48C67.72,447.98,74.79,450.49,79.98,456.59z"/>
						<path id="XMLID_970_" class="st5" d="M79.99,456.59c5.18,6.08,6.54,13.48,3,16.49c-0.52,0.44-1.1,0.76-1.8,0.94
							c1.79-3.54,0.15-9.67-4.25-14.85c-4.42-5.2-10.2-7.77-13.97-6.57c0.29-0.65,0.7-1.18,1.22-1.62
							C67.73,447.98,74.8,450.49,79.99,456.59z"/>
						<path id="XMLID_969_" class="st6" d="M77.89,469.94c-1.32,1.12-4.82-0.83-7.82-4.36s-4.37-7.3-3.05-8.42
							S79.21,468.82,77.89,469.94z"/>
					</g>
					<g id="XMLID_964_">
						<path id="XMLID_967_" class="st4" d="M53.78,416.49c1.73,6.05,0.3,11.77-3.2,12.77c-3.5,1-7.74-3.09-9.48-9.15
							c-1.73-6.05-0.3-11.77,3.2-12.77C47.8,406.34,52.04,410.44,53.78,416.49z"/>
						<path id="XMLID_966_" class="st5" d="M53.79,416.5c1.73,6.03,0.3,11.77-3.21,12.78c-0.52,0.15-1.04,0.18-1.59,0.09
							c2.43-1.95,3.25-6.87,1.78-12.01c-1.48-5.16-4.77-8.87-7.86-9.25c0.42-0.37,0.88-0.62,1.4-0.76
							C47.81,406.35,52.05,410.44,53.79,416.5z"/>
						<path id="XMLID_965_" class="st6" d="M47.95,425.37c-1.31,0.37-3.18-2.16-4.18-5.66c-1-3.5-0.76-6.64,0.55-7.02
							C45.62,412.31,49.25,424.99,47.95,425.37z"/>
					</g>
					<g id="XMLID_960_">
						<path id="XMLID_963_" class="st4" d="M119.24,490.81c5.3,3.41,7.99,8.65,6.02,11.71c-1.97,3.06-7.86,2.79-13.16-0.62
							c-5.3-3.41-7.99-8.65-6.02-11.71C108.06,487.13,113.95,487.4,119.24,490.81z"/>
						<path id="XMLID_962_" class="st5" d="M119.26,490.81c5.28,3.39,7.99,8.65,6.02,11.72c-0.29,0.45-0.66,0.82-1.13,1.12
							c0.54-3.07-2.09-7.31-6.58-10.2c-4.51-2.9-9.44-3.52-12.01-1.76c0.07-0.56,0.26-1.05,0.55-1.5
							C108.07,487.12,113.95,487.4,119.26,490.81z"/>
						<path id="XMLID_961_" class="st6" d="M120.72,501.33c-0.73,1.14-3.81,0.47-6.88-1.5c-3.06-1.97-4.95-4.49-4.22-5.63
							C110.36,493.05,121.45,500.18,120.72,501.33z"/>
					</g>
					<g id="XMLID_956_">
						<path id="XMLID_959_" class="st4" d="M43.83,372.95c0.58,4.94-1.27,9.22-4.13,9.55c-2.86,0.34-5.65-3.4-6.22-8.34
							c-0.58-4.94,1.27-9.22,4.13-9.55C40.46,364.28,43.25,368.01,43.83,372.95z"/>
						<path id="XMLID_958_" class="st5" d="M43.84,372.96c0.58,4.93-1.27,9.22-4.13,9.56c-0.42,0.05-0.83,0.01-1.25-0.13
							c2.14-1.21,3.41-4.95,2.92-9.14c-0.49-4.21-2.59-7.53-4.95-8.21c0.38-0.24,0.77-0.37,1.19-0.42
							C40.47,364.28,43.26,368.01,43.84,372.96z"/>
						<path id="XMLID_957_" class="st6" d="M38.15,379.13c-1.07,0.12-2.2-2.09-2.54-4.95c-0.33-2.86,0.26-5.28,1.32-5.4
							C38,368.66,39.22,379.01,38.15,379.13z"/>
					</g>
					<g id="XMLID_952_">
						<path id="XMLID_955_" class="st4" d="M161.22,509.16c4.76,1.46,7.92,4.88,7.08,7.63c-0.85,2.75-5.39,3.79-10.14,2.33
							c-4.76-1.46-7.92-4.88-7.08-7.63C151.92,508.74,156.46,507.7,161.22,509.16z"/>
						<path id="XMLID_954_" class="st5" d="M161.23,509.16c4.74,1.46,7.93,4.88,7.08,7.63c-0.12,0.41-0.32,0.77-0.63,1.09
							c-0.24-2.45-3.15-5.12-7.18-6.36c-4.05-1.25-7.93-0.67-9.51,1.22c-0.06-0.44-0.03-0.85,0.1-1.26
							C151.93,508.73,156.47,507.69,161.23,509.16z"/>
						<path id="XMLID_953_" class="st6" d="M164.58,516.85c-0.32,1.03-2.8,1.17-5.55,0.32c-2.75-0.85-4.72-2.36-4.41-3.39
							C154.94,512.76,164.9,515.82,164.58,516.85z"/>
					</g>
					<g id="XMLID_948_">
						<path id="XMLID_951_" class="st4" d="M43.36,330.3c-0.24,3.91-2.27,6.97-4.53,6.82c-2.26-0.14-3.9-3.42-3.66-7.33
							c0.24-3.91,2.27-6.96,4.53-6.82C41.97,323.1,43.6,326.39,43.36,330.3z"/>
						<path id="XMLID_950_" class="st5" d="M43.37,330.3c-0.24,3.9-2.27,6.97-4.54,6.82c-0.33-0.02-0.65-0.11-0.95-0.28
							c1.83-0.64,3.33-3.35,3.54-6.67c0.21-3.33-0.95-6.2-2.69-7.06c0.33-0.13,0.65-0.18,0.98-0.16
							C41.97,323.11,43.61,326.39,43.37,330.3z"/>
						<path id="XMLID_949_" class="st6" d="M38.1,334.29c-0.84-0.05-1.41-1.93-1.27-4.19c0.14-2.26,0.94-4.05,1.78-4
							C39.45,326.15,38.94,334.34,38.1,334.29z"/>
					</g>
					<g id="XMLID_944_">
						<path id="XMLID_947_" class="st4" d="M201.04,518.01c3.9,0.35,6.9,2.46,6.7,4.72c-0.2,2.26-3.53,3.8-7.43,3.45
							c-3.9-0.35-6.9-2.46-6.7-4.72C193.81,519.21,197.14,517.66,201.04,518.01z"/>
						<path id="XMLID_946_" class="st5" d="M201.05,518.01c3.89,0.35,6.9,2.46,6.7,4.72c-0.03,0.33-0.12,0.64-0.3,0.94
							c-0.59-1.85-3.26-3.43-6.57-3.72c-3.32-0.3-6.22,0.78-7.13,2.49c-0.12-0.33-0.16-0.65-0.13-0.98
							C193.82,519.2,197.14,517.66,201.05,518.01z"/>
						<path id="XMLID_945_" class="st6" d="M204.89,523.39c-0.08,0.84-1.97,1.36-4.22,1.16c-2.26-0.2-4.02-1.05-3.95-1.89
							C196.79,521.81,204.96,522.55,204.89,523.39z"/>
					</g>
					<g id="XMLID_940_">
						<path id="XMLID_943_" class="st4" d="M48.79,291.8c-0.56,2.76-2.3,4.73-3.89,4.41c-1.59-0.32-2.44-2.82-1.88-5.57
							c0.56-2.75,2.3-4.73,3.89-4.41C48.51,286.55,49.35,289.05,48.79,291.8z"/>
						<path id="XMLID_942_" class="st5" d="M48.8,291.81c-0.55,2.75-2.3,4.73-3.89,4.41c-0.23-0.05-0.45-0.14-0.65-0.29
							c1.36-0.28,2.7-2.06,3.17-4.39c0.47-2.35-0.07-4.5-1.22-5.28c0.24-0.06,0.48-0.06,0.71-0.02
							C48.51,286.56,49.35,289.05,48.8,291.81z"/>
						<path id="XMLID_941_" class="st6" d="M44.66,294.13c-0.59-0.12-0.82-1.51-0.49-3.1c0.32-1.59,1.06-2.79,1.66-2.67
							C46.42,288.47,45.25,294.25,44.66,294.13z"/>
					</g>
					<g id="XMLID_936_">
						<path id="XMLID_939_" class="st4" d="M230.91,521.31c2.8,0.25,4.95,1.76,4.81,3.38c-0.14,1.62-2.53,2.73-5.33,2.48
							c-2.8-0.25-4.95-1.76-4.81-3.38C225.72,522.17,228.11,521.06,230.91,521.31z"/>
						<path id="XMLID_938_" class="st5" d="M230.91,521.3c2.79,0.25,4.95,1.76,4.81,3.38c-0.02,0.24-0.09,0.46-0.22,0.68
							c-0.42-1.32-2.34-2.46-4.72-2.67c-2.39-0.21-4.46,0.57-5.11,1.79c-0.09-0.24-0.11-0.47-0.09-0.71
							C225.73,522.17,228.11,521.05,230.91,521.3z"/>
						<path id="XMLID_937_" class="st6" d="M233.67,525.16c-0.05,0.6-1.41,0.98-3.03,0.83c-1.62-0.14-2.89-0.75-2.83-1.35
							C227.86,524.03,233.72,524.56,233.67,525.16z"/>
					</g>
					<g id="XMLID_932_">
						<path id="XMLID_935_" class="st4" d="M53.72,262.47c-0.44,2.19-1.83,3.76-3.09,3.5c-1.27-0.26-1.94-2.24-1.5-4.43
							c0.44-2.19,1.83-3.76,3.09-3.5C53.49,258.29,54.16,260.28,53.72,262.47z"/>
						<path id="XMLID_934_" class="st5" d="M53.72,262.47c-0.44,2.18-1.83,3.76-3.1,3.5c-0.19-0.04-0.36-0.11-0.52-0.23
							c1.08-0.22,2.15-1.64,2.52-3.49c0.38-1.87-0.06-3.58-0.97-4.2c0.19-0.05,0.38-0.05,0.57-0.01
							C53.49,258.3,54.16,260.28,53.72,262.47z"/>
						<path id="XMLID_933_" class="st6" d="M50.43,264.31c-0.47-0.1-0.65-1.2-0.39-2.47c0.26-1.27,0.85-2.22,1.32-2.12
							C51.83,259.82,50.9,264.41,50.43,264.31z"/>
					</g>
				</g>
				<path id="XMLID_928_" class="st2" d="M692.94,252.65c-1.23-11.87-2.16-22.02-2.3-29.69c-0.07-3.82,0.02-7.01,0.25-9.32
					c0.02-0.37,0.07-0.69,0.12-1.01c0.22-1.67,0.49-2.55,0.42-2.72c0-0.05-0.07-0.05-0.15-0.02c5.88-3.06,8.73-10.22,6.01-16.72
					c-2.33-5.61-8.38-8.61-14.29-7.77c-0.69,3.95-3.16,7.45-6.84,9.37c0.07-0.02,0.15-0.02,0.15,0.02c0.07,0.17-0.2,1.05-0.42,2.72
					c-0.05,0.32-0.1,0.64-0.12,1.01c-0.22,2.3-0.32,5.49-0.25,9.32c0.15,7.67,1.08,17.82,2.3,29.69c1.2,11.92,2.8,25.62,3.78,40.92
					c0.96,15.3,1.59,32.19,0.54,50.46c-1.1,18.24-3.78,38-10.1,58.38c-3.21,10.15-7.38,20.45-12.7,30.5
					c-5.34,10.05-11.89,19.86-19.59,28.93c-15.37,18.27-35.57,32.85-56.76,42.93c-5.32,2.55-10.69,4.83-16.08,6.89
					c-2.72,1.05-5.42,2.01-8.14,2.94l-4.09,1.35l-4.36,1.32c-10.32,3.04-21.04,5.61-31.92,7.55c-21.72,3.85-44.52,5.39-67.3,2.5
					c-22.7-2.75-45.38-10.08-64.58-21.53c-9.12-5.37-17.43-11.5-24.86-18.07c10.69,12.19,24.1,23.83,39.99,33.2
					c19.2,11.45,41.88,18.78,64.58,21.53c22.78,2.89,45.58,1.35,67.3-2.5c10.89-1.94,21.6-4.51,31.92-7.55l4.36-1.32l4.09-1.35
					c2.72-0.93,5.42-1.89,8.14-2.94c5.39-2.06,10.76-4.34,16.08-6.89c21.18-10.08,41.39-24.66,56.76-42.93
					c7.7-9.07,14.24-18.88,19.59-28.93c5.32-10.05,9.49-20.35,12.7-30.5c6.33-20.37,9-40.14,10.1-58.38
					c1.05-18.27,0.42-35.16-0.54-50.46C695.74,278.27,694.14,264.56,692.94,252.65z M689.07,210.79c0.71-0.22,1.37-0.49,2.01-0.81
					c-0.29,0.17-0.74,0.49-1.1,0.56C689.36,210.79,689.07,210.79,689.07,210.79z"/>
				<path id="XMLID_927_" class="st3" d="M557.31,509.64c-59.99,29.98-115.6,16.08-153.6-2.62c-0.71-0.42-1.4-0.81-2.08-1.23
					c-15.89-9.37-29.3-21.01-39.99-33.2c7.43,6.57,15.74,12.7,24.86,18.07c19.2,11.45,41.88,18.78,64.58,21.53
					c22.78,2.89,45.58,1.35,67.3-2.5c10.89-1.94,21.6-4.51,31.92-7.55l4.36-1.32l4.09-1.35c2.72-0.93,5.42-1.89,8.14-2.94
					c5.39-2.06,10.76-4.34,16.08-6.89c21.18-10.08,41.39-24.66,56.76-42.93c7.7-9.07,14.24-18.88,19.59-28.93
					c5.32-10.05,9.49-20.35,12.7-30.5c6.33-20.37,9-40.14,10.1-58.38c1.05-18.27,0.42-35.16-0.54-50.46
					c-0.98-15.3-2.57-29-3.78-40.92c-1.23-11.87-2.16-22.02-2.3-29.69v-0.61c0.07-0.96,0.15-1.89,0.22-2.82
					c0.05,0.05,0.12,0.1,0.17,0.12c2.21,1.52,4.24,2.55,5.84,3.24c1.5,22.21,3.75,50.04,7.13,84.49
					C701.13,417.28,666.8,454.87,557.31,509.64z"/>
				<g id="XMLID_854_">
					<g id="XMLID_923_">
						
							<ellipse id="XMLID_926_" transform="matrix(0.5922 -0.8058 0.8058 0.5922 -95.8148 716.7169)" class="st4" cx="660.16" cy="453.02" rx="14.5" ry="8.39"/>
						<path id="XMLID_925_" class="st5" d="M653.38,448.05c-4.73,6.44-5.56,13.91-1.82,16.66c0.55,0.4,1.15,0.68,1.86,0.81
							c-2.03-3.4-0.84-9.64,3.18-15.11c4.04-5.5,9.62-8.48,13.47-7.55c-0.34-0.63-0.78-1.13-1.33-1.53
							C664.99,438.59,658.13,441.59,653.38,448.05z"/>
						<path id="XMLID_924_" class="st6" d="M656.42,461.22c1.39,1.02,4.75-1.17,7.49-4.91c2.74-3.73,3.84-7.59,2.45-8.61
							C664.97,446.67,655.03,460.19,656.42,461.22z"/>
					</g>
					<g id="XMLID_919_">
						<path id="XMLID_922_" class="st4" d="M676.68,406.18c-1.3,6.16,0.54,11.76,4.1,12.51c3.56,0.75,7.5-3.64,8.8-9.8
							c1.3-6.16-0.54-11.76-4.1-12.51C681.91,395.64,677.97,400.02,676.68,406.18z"/>
						<path id="XMLID_921_" class="st5" d="M676.66,406.19c-1.29,6.14,0.54,11.76,4.11,12.52c0.53,0.11,1.05,0.11,1.59-0.02
							c-2.56-1.77-3.73-6.62-2.63-11.85c1.11-5.25,4.13-9.19,7.19-9.78c-0.45-0.34-0.93-0.55-1.45-0.66
							C681.9,395.64,677.96,400.02,676.66,406.19z"/>
						<path id="XMLID_920_" class="st6" d="M683.12,414.62c1.33,0.28,3.01-2.38,3.76-5.95c0.75-3.56,0.28-6.68-1.05-6.96
							C684.51,401.44,681.79,414.34,683.12,414.62z"/>
					</g>
					<g id="XMLID_915_">
						<path id="XMLID_918_" class="st4" d="M616.66,484.97c-5.04,3.77-7.36,9.2-5.17,12.11c2.18,2.92,8.04,2.22,13.08-1.55
							c5.04-3.77,7.36-9.2,5.17-12.11C627.56,480.5,621.7,481.2,616.66,484.97z"/>
						<path id="XMLID_917_" class="st5" d="M616.65,484.97c-5.03,3.76-7.36,9.19-5.17,12.11c0.32,0.43,0.71,0.77,1.21,1.04
							c-0.75-3.02,1.57-7.44,5.84-10.64c4.29-3.22,9.17-4.18,11.85-2.61c-0.11-0.55-0.33-1.03-0.65-1.45
							C627.54,480.5,621.7,481.19,616.65,484.97z"/>
						<path id="XMLID_916_" class="st6" d="M615.94,495.57c0.81,1.09,3.84,0.2,6.75-1.98c2.92-2.18,4.62-4.83,3.81-5.92
							C625.68,486.57,615.12,494.48,615.94,495.57z"/>
					</g>
					<g id="XMLID_911_">
						<path id="XMLID_914_" class="st4" d="M690.87,358.49c-0.41,4.96,1.58,9.17,4.45,9.41c2.87,0.24,5.53-3.59,5.94-8.55
							c0.41-4.96-1.58-9.17-4.45-9.41C693.94,349.7,691.28,353.53,690.87,358.49z"/>
						<path id="XMLID_913_" class="st5" d="M690.86,358.49c-0.41,4.94,1.58,9.17,4.45,9.41c0.42,0.03,0.83-0.02,1.25-0.17
							c-2.18-1.14-3.58-4.83-3.23-9.03c0.35-4.23,2.33-7.61,4.67-8.38c-0.39-0.22-0.78-0.34-1.2-0.38
							C693.93,349.7,691.27,353.53,690.86,358.49z"/>
						<path id="XMLID_912_" class="st6" d="M696.76,364.47c1.07,0.09,2.13-2.17,2.37-5.03c0.24-2.87-0.44-5.27-1.51-5.35
							C696.55,353.99,695.69,364.38,696.76,364.47z"/>
					</g>
					<g id="XMLID_894_">
						<path id="XMLID_910_" class="st4" d="M576.1,506.26c-4.64,1.8-7.56,5.43-6.52,8.12c1.04,2.68,5.64,3.4,10.28,1.6
							c4.64-1.8,7.56-5.43,6.52-8.12C585.34,505.18,580.74,504.46,576.1,506.26z"/>
						<path id="XMLID_909_" class="st5" d="M576.09,506.26c-4.63,1.79-7.56,5.43-6.52,8.12c0.15,0.4,0.38,0.74,0.7,1.05
							c0.07-2.46,2.78-5.33,6.71-6.85c3.95-1.53,7.87-1.23,9.58,0.54c0.03-0.44-0.03-0.85-0.19-1.25
							C585.33,505.18,580.73,504.46,576.09,506.26z"/>
						<path id="XMLID_908_" class="st6" d="M573.29,514.17c0.39,1,2.88,0.97,5.56-0.07c2.68-1.04,4.54-2.69,4.16-3.7
							C582.62,509.4,572.9,513.17,573.29,514.17z"/>
					</g>
					<g id="XMLID_890_">
						<path id="XMLID_893_" class="st4" d="M693.77,316.9c0.12,3.92,2.05,7.03,4.32,6.96c2.26-0.07,4-3.3,3.89-7.21
							c-0.12-3.92-2.05-7.03-4.32-6.96C695.39,309.76,693.65,312.99,693.77,316.9z"/>
						<path id="XMLID_892_" class="st5" d="M693.77,316.91c0.12,3.9,2.05,7.03,4.32,6.96c0.33-0.01,0.65-0.09,0.96-0.25
							c-1.81-0.7-3.23-3.46-3.33-6.78c-0.1-3.34,1.15-6.16,2.91-6.97c-0.32-0.14-0.64-0.2-0.97-0.19
							C695.39,309.76,693.65,312.99,693.77,316.91z"/>
						<path id="XMLID_891_" class="st6" d="M698.91,321.06c0.84-0.03,1.47-1.88,1.4-4.15c-0.07-2.26-0.81-4.08-1.65-4.05
							C697.81,312.88,698.06,321.08,698.91,321.06z"/>
					</g>
					<g id="XMLID_876_">
						<path id="XMLID_889_" class="st4" d="M537.01,517.93c-3.87,0.63-6.71,2.95-6.34,5.19c0.36,2.24,3.79,3.54,7.66,2.91
							c3.87-0.63,6.71-2.95,6.34-5.19C544.3,518.6,540.87,517.3,537.01,517.93z"/>
						<path id="XMLID_883_" class="st5" d="M537,517.92c-3.85,0.63-6.71,2.95-6.34,5.19c0.05,0.33,0.17,0.63,0.37,0.92
							c0.46-1.88,3.01-3.65,6.29-4.18c3.29-0.53,6.26,0.34,7.29,1.98c0.1-0.34,0.11-0.66,0.06-0.99
							C544.29,518.6,540.87,517.29,537,517.92z"/>
						<path id="XMLID_881_" class="st6" d="M533.55,523.56c0.14,0.83,2.06,1.22,4.29,0.85c2.24-0.36,3.94-1.33,3.8-2.17
							C541.52,521.41,533.42,522.72,533.55,523.56z"/>
					</g>
					<g id="XMLID_865_">
						<path id="XMLID_868_" class="st4" d="M692.92,278.88c0.34,2.79,1.92,4.89,3.54,4.7c1.61-0.2,2.65-2.62,2.31-5.41
							c-0.34-2.79-1.92-4.89-3.54-4.7S692.58,276.09,692.92,278.88z"/>
						<path id="XMLID_867_" class="st5" d="M692.92,278.89c0.34,2.78,1.92,4.89,3.54,4.7c0.24-0.03,0.46-0.1,0.67-0.24
							c-1.34-0.38-2.53-2.26-2.82-4.63c-0.29-2.38,0.42-4.48,1.63-5.17c-0.24-0.08-0.47-0.1-0.71-0.07
							C693.61,273.68,692.58,276.09,692.92,278.89z"/>
						<path id="XMLID_866_" class="st6" d="M696.86,281.52c0.6-0.07,0.93-1.44,0.73-3.05c-0.2-1.61-0.84-2.86-1.44-2.79
							C695.55,275.75,696.26,281.59,696.86,281.52z"/>
					</g>
					<g id="XMLID_860_">
						<path id="XMLID_864_" class="st4" d="M507.45,523.33c-2.77,0.45-4.81,2.11-4.56,3.72c0.26,1.6,2.72,2.54,5.49,2.1
							c2.77-0.45,4.81-2.11,4.56-3.72C512.68,523.83,510.22,522.89,507.45,523.33z"/>
						<path id="XMLID_863_" class="st5" d="M507.45,523.33c-2.77,0.45-4.81,2.11-4.56,3.72c0.04,0.24,0.12,0.45,0.26,0.66
							c0.33-1.35,2.16-2.62,4.51-3c2.36-0.38,4.49,0.25,5.23,1.43c0.07-0.24,0.08-0.47,0.04-0.71
							C512.68,523.82,510.22,522.88,507.45,523.33z"/>
						<path id="XMLID_862_" class="st6" d="M504.97,527.37c0.1,0.6,1.48,0.87,3.08,0.62c1.6-0.26,2.83-0.95,2.73-1.55
							C510.68,525.84,504.87,526.77,504.97,527.37z"/>
					</g>
					<g id="XMLID_856_">
						<path id="XMLID_859_" class="st4" d="M689.9,246.56c-0.03,2.24,1,4.06,2.29,4.08c1.29,0.02,2.36-1.78,2.39-4.02
							c0.03-2.24-1-4.06-2.29-4.08C691,242.53,689.93,244.33,689.9,246.56z"/>
						<path id="XMLID_858_" class="st5" d="M689.9,246.57c-0.03,2.23,1,4.06,2.29,4.08c0.19,0,0.37-0.03,0.55-0.12
							c-1.01-0.44-1.76-2.05-1.73-3.94c0.02-1.9,0.8-3.49,1.83-3.9c-0.18-0.09-0.36-0.13-0.55-0.13
							C690.99,242.53,689.92,244.33,689.9,246.57z"/>
						<path id="XMLID_857_" class="st6" d="M692.73,249.06c0.48,0.01,0.89-1.04,0.9-2.33c0.02-1.29-0.36-2.35-0.84-2.35
							C692.3,244.37,692.25,249.05,692.73,249.06z"/>
					</g>
				</g>
				<g id="XMLID_831_">
					<g id="XMLID_839_">
						<path id="XMLID_841_" class="st9" d="M66.16,161.34C62,175.5,54.57,176.95,50.9,176.72c-1.3-0.08-2.27-1.26-2.05-2.54
							c0.38-2.22,1.74-5.65,6.35-7.7c4.75-2.11,8.19-4.45,10.01-5.81C65.67,160.32,66.32,160.78,66.16,161.34z"/>
						<path id="XMLID_840_" class="st10" d="M60,172.99c-3.37,3.41-6.91,3.87-9.09,3.73c-1.3-0.08-2.27-1.25-2.05-2.54
							c0.36-2.11,1.6-5.31,5.65-7.37c-1.54,1.68-2.16,3.53-2.39,4.91c-0.22,1.29,0.75,2.46,2.05,2.54
							C55.65,174.36,57.75,174.18,60,172.99z"/>
					</g>
					<path id="XMLID_838_" class="st11" d="M102.77,212.14c-2.53,16.83-7.41,27.32-14.21,30.94c-1.7,0.9-5.35,1.14-8.53,1.68
						c-1.22,0.2-2.39,0.55-3.51,1.03c-2.22,0.94-4.2,2.41-5.72,4.31c-0.03,0.03-0.06,0.07-0.09,0.11c-1.83,2.26-4.71,3.35-7.6,3.02
						c-30.54-3.47-44.23-21.7-47.57-38.25c-2.9-14.37,6.23-26.74,15.29-29.96c1.77-0.64,3.55-0.92,5.23-0.79
						c2.96,0.22,6.06,1.06,8.73,1.27c1.39,0.11,2.78,0.03,4.11-0.25c2.57-0.53,4.97-1.75,6.94-3.58c3.17-2.96,7.07-6.86,9.52-9.35
						c1.45-1.47,3.24-2.58,5.19-3.16c0.63-0.19,1.29-0.32,1.96-0.39c6.82-0.72,12.72,2.38,17.42,6.51
						C100.33,184.43,104.83,198.45,102.77,212.14z"/>
					<path id="XMLID_837_" class="st12" d="M69.34,183.4c-13.69,13.64-31.24,5.86-38.51,1.62c1.77-0.64,3.55-0.92,5.23-0.79
						c2.96,0.22,6.06,1.06,8.73,1.27c1.39,0.11,2.78,0.03,4.11-0.25c1.08,0.41,2.08,0.77,2.98,1.02c5.05,1.41,12.9-1.8,16.89-3.7
						C69.29,182.33,69.75,183,69.34,183.4z"/>
					<path id="XMLID_835_" class="st13" d="M31.16,194.37c0,0,0.02,0.18,0.04,0.5c0.02,0.32,0.06,0.79,0.07,1.36
						c0.02,0.57,0.03,1.25,0.03,2c-0.01,0.75-0.01,1.58-0.05,2.45c0,0.44-0.03,0.89-0.06,1.34c-0.02,0.45-0.05,0.92-0.07,1.4
						c-0.07,0.95-0.12,1.92-0.21,2.9c-0.08,0.96-0.16,1.95-0.24,2.96c-0.09,0.99-0.16,1.98-0.2,2.96c-0.03,0.97-0.06,1.95-0.01,2.89
						c0.01,0.95,0.1,1.88,0.19,2.8c0.05,0.46,0.13,0.9,0.17,1.35c0.08,0.45,0.15,0.89,0.23,1.32c0.1,0.44,0.19,0.86,0.28,1.27
						c0.1,0.42,0.22,0.82,0.32,1.21c0.2,0.8,0.47,1.52,0.68,2.21c0.26,0.65,0.44,1.29,0.64,1.79c0.2,0.5,0.34,0.93,0.46,1.21
						c0.1,0.3,0.15,0.46,0.15,0.46l0.01,0.03c0.07,0.21-0.04,0.44-0.26,0.51c-0.08,0.03-0.16,0.03-0.24,0.01
						c0,0-0.16-0.04-0.47-0.13c-0.29-0.1-0.75-0.23-1.3-0.44c-0.56-0.21-1.18-0.55-1.91-0.96c-0.36-0.21-0.72-0.46-1.1-0.74
						c-0.38-0.27-0.79-0.56-1.16-0.92c-0.79-0.68-1.55-1.52-2.31-2.48c-0.34-0.5-0.71-1.01-1.05-1.55
						c-0.31-0.56-0.64-1.13-0.92-1.74c-0.55-1.22-1.02-2.53-1.33-3.9c-0.07-0.34-0.15-0.69-0.22-1.03l-0.15-1.04
						c-0.12-0.7-0.13-1.4-0.18-2.1c-0.04-1.4,0.02-2.79,0.21-4.12c0.18-1.34,0.52-2.61,0.91-3.81c0.41-1.19,0.9-2.3,1.45-3.3
						c0.27-0.5,0.56-0.98,0.86-1.42c0.28-0.45,0.6-0.87,0.9-1.26c0.61-0.79,1.24-1.46,1.84-2.03c0.59-0.57,1.17-1.02,1.66-1.38
						c0.99-0.7,1.68-1,1.68-1c0.23-0.1,0.49,0,0.59,0.23c0.02,0.04,0.03,0.08,0.03,0.12L31.16,194.37z"/>
					<path id="XMLID_834_" class="st14" d="M50.96,187.45c0,0-0.56-1.61-1.28-4.07c-0.72-2.46-1.59-5.77-2.22-9.18
						c-0.31-1.71-0.56-3.44-0.69-5.1c-0.06-0.83-0.1-1.65-0.09-2.44c0.01-0.79,0.04-1.55,0.14-2.28c0.04-0.36,0.09-0.71,0.17-1.05
						c0.06-0.34,0.14-0.66,0.24-0.98c0.08-0.31,0.18-0.61,0.31-0.89c0.12-0.28,0.21-0.53,0.36-0.77c0.14-0.23,0.26-0.44,0.36-0.62
						c0.14-0.18,0.26-0.33,0.35-0.46c0.2-0.24,0.31-0.37,0.31-0.37c0.85-1.02,2.36-1.16,3.38-0.31c1.02,0.85,1.16,2.36,0.31,3.38
						c-0.03,0.03-0.05,0.06-0.08,0.09l-0.29,0.31c0,0-0.03,0.03-0.09,0.08c-0.03,0.03-0.08,0.06-0.13,0.09
						c-0.05,0.06-0.1,0.13-0.17,0.21c-0.07,0.06-0.14,0.19-0.22,0.31c-0.08,0.12-0.16,0.27-0.24,0.45
						c-0.09,0.17-0.17,0.36-0.25,0.59c-0.09,0.21-0.17,0.46-0.23,0.72c-0.16,0.52-0.28,1.13-0.38,1.79
						c-0.11,0.66-0.18,1.38-0.24,2.13c-0.12,1.51-0.13,3.16-0.08,4.82c0.1,3.33,0.46,6.69,0.8,9.19c0.34,2.51,0.65,4.17,0.65,4.17
						c0.04,0.2-0.09,0.39-0.29,0.43C51.19,187.72,51.02,187.62,50.96,187.45z"/>
					<path id="XMLID_833_" class="st12" d="M89.93,175.28c-4.7-4.13-10.61-7.22-17.42-6.51c-0.66,0.07-1.32,0.2-1.96,0.39
						c9.48,4.44,21.14,11.96,24.81,23.11c0.18,0.55,0.32,1.12,0.43,1.7c-0.38-0.23-0.79-0.41-1.22-0.5
						c-4.2-0.86-9.08,5.6-10.9,14.43c-1.55,7.53-0.37,14.34,2.61,16.73c-4.51,8.47-9.03,16.23-9.76,21.15
						c1.12-0.47,2.29-0.82,3.51-1.03c3.18-0.54,6.83-0.78,8.53-1.68c6.8-3.62,11.68-14.11,14.21-30.94
						C104.83,198.45,100.33,184.43,89.93,175.28z"/>
				</g>
				<path id="XMLID_827_" class="st7" d="M29.58,222.2c0,0,0.22-0.02,0.63-0.05c0.48-0.06,1.19-0.15,2.09-0.27
					c1.85-0.27,4.56-0.74,7.8-1.48c6.46-1.45,15.05-4.02,22.72-8.02c1.89-1.02,3.77-2.08,5.48-3.26c1.76-1.15,3.33-2.42,4.81-3.71
					c0.74-0.64,1.38-1.34,2.07-1.99c0.62-0.7,1.22-1.39,1.8-2.06c0.51-0.71,1.06-1.39,1.53-2.08c0.44-0.71,0.86-1.4,1.26-2.07
					c0.35-0.7,0.68-1.37,0.99-2.01c0.29-0.65,0.5-1.3,0.73-1.9c0.49-1.2,0.65-2.32,0.94-3.24c0.3-1.89,0.47-2.96,0.47-2.96
					l0.06-0.35c0.27-1.69,1.86-2.85,3.56-2.58c1.38,0.22,2.4,1.32,2.59,2.63c0,0,0.19,1.31,0.43,3.67
					c-0.01,1.18,0.14,2.64-0.02,4.31c-0.08,0.83-0.12,1.74-0.25,2.68c-0.17,0.94-0.35,1.92-0.54,2.95
					c-0.25,1.01-0.56,2.06-0.87,3.16c-0.35,1.07-0.79,2.15-1.22,3.29c-0.49,1.09-1.02,2.21-1.58,3.35
					c-0.62,1.08-1.23,2.24-1.93,3.33c-1.41,2.19-2.98,4.39-4.74,6.43c-1.73,2.1-3.64,4.03-5.59,5.92
					c-7.9,7.46-16.95,13.15-23.94,16.94c-3.51,1.91-6.51,3.35-8.7,4.33c-1.12,0.49-2.01,0.87-2.61,1.13
					c-0.68,0.27-1.05,0.41-1.05,0.41L35.71,249c-7.15,2.79-15.21-0.74-18-7.89c-2.79-7.15,0.74-15.21,7.89-18
					C26.88,222.61,28.27,222.31,29.58,222.2z"/>
				<path id="XMLID_826_" class="st8" d="M311.35,104.76c0.93,1.59-2.15,5.14-6.88,7.92c-4.74,2.78-9.33,3.74-10.27,2.15
					c-0.94-1.59,2.15-5.14,6.88-7.92C305.82,104.13,310.42,103.17,311.35,104.76z"/>
				<path id="XMLID_821_" class="st15" d="M359.82,109.47c-7.11,2.24-13.81,5.74-18.7,11.36c-9.28,10.68-16.52,22.87-20.78,36.34
					c-11.19,35.34-11.8,85.17,16.27,113.29c35.06,35.12,93.8,17.39,123.21-15.17c29.3-32.42,45.36-86.76,13.69-122.73
					c-26.47-30.07-74.74-44.85-111.07-24.25C361.56,108.82,360.69,109.2,359.82,109.47z"/>
				<path id="XMLID_817_" class="st8" d="M154.65,443.76c0,0,2.77,1.13,7.92,2.51c5.12,1.37,12.54,2.94,21.52,3.71
					c4.49,0.36,9.36,0.56,14.49,0.42c5.13-0.1,10.53-0.62,16.06-1.4c5.55-0.71,11.15-2.16,16.84-3.56
					c5.64-1.61,11.32-3.5,16.82-5.84l4.15-1.7c1.38-0.59,2.71-1.27,4.06-1.9l4.04-1.93c1.31-0.71,2.61-1.42,3.91-2.13
					c1.3-0.71,2.6-1.41,3.89-2.11c1.27-0.75,2.52-1.5,3.78-2.24c1.25-0.74,2.5-1.48,3.73-2.21c1.2-0.8,2.39-1.59,3.57-2.37
					c4.76-3.08,9.19-6.35,13.41-9.45c4.07-3.28,8.07-6.24,11.5-9.29c1.75-1.49,3.43-2.92,5.03-4.27c1.56-1.41,3.03-2.75,4.42-4
					c1.4-1.26,2.71-2.43,3.92-3.52c1.18-1.12,2.26-2.16,3.23-3.09c3.91-3.73,6.22-5.83,6.22-5.83s-1.76,2.55-4.95,6.96
					c-0.81,1.1-1.7,2.31-2.68,3.63c-1.04,1.27-2.16,2.64-3.36,4.11c-1.21,1.47-2.5,3.03-3.85,4.67c-1.39,1.62-2.96,3.22-4.55,4.95
					c-3.12,3.5-6.8,7.02-10.74,10.71c-4.05,3.55-8.27,7.41-13.09,10.85c-1.18,0.89-2.38,1.78-3.58,2.69
					c-1.25,0.84-2.5,1.69-3.77,2.54c-1.27,0.85-2.54,1.71-3.82,2.57c-1.29,0.84-2.67,1.58-4.01,2.37c-1.35,0.78-2.71,1.57-4.07,2.35
					l-4.21,2.16c-1.42,0.71-2.81,1.47-4.25,2.13l-4.36,1.94c-5.84,2.54-11.93,4.5-17.98,6.21c-3.06,0.72-6.06,1.6-9.12,2.04
					c-1.52,0.26-3.03,0.52-4.53,0.78c-1.51,0.18-3.01,0.37-4.5,0.55c-2.97,0.39-5.92,0.52-8.8,0.67c-2.89,0.01-5.7,0.09-8.44-0.08
					c-5.48-0.15-10.64-0.82-15.33-1.69c-4.7-0.79-8.92-1.97-12.61-3.12c-3.7-1.12-6.81-2.44-9.34-3.53
					c-2.54-1.1-4.44-2.18-5.75-2.89c-1.29-0.73-1.98-1.18-1.98-1.18c-0.57-0.37-0.73-1.14-0.36-1.7
					C153.48,443.72,154.12,443.54,154.65,443.76z"/>
				<path id="XMLID_816_" class="st2" d="M123.67,342.55c-0.25,2.77-0.29,5.61-0.37,8.46c-0.07,5.71,0.2,11.57,0.91,17.53
					c1.35,11.87,4.73,24.25,10.42,35.8c5.66,11.57,13.73,22.07,22.78,30.45c9.07,8.46,18.95,15.05,28.54,19.96
					c0.07,0.02,0.12,0.05,0.2,0.07c0,0-0.02,0-0.05,0c-1.69-0.29-3.58-0.74-5.49-1.18c-7.48-1.79-14.66-4.19-21.38-6.99
					c-3.09-1.27-6.06-2.67-8.9-4.22c4.24,1.47,8.63,2.77,13.12,3.85c1.91,0.44,3.8,0.88,5.49,1.18c0.02,0,0.05,0,0.05,0
					c-0.07-0.02-0.12-0.05-0.2-0.07c-9.59-4.9-19.47-11.5-28.54-19.96c-9.05-8.39-17.11-18.88-22.78-30.45
					c-5.69-11.55-9.07-23.93-10.42-35.8c-0.71-5.96-0.98-11.82-0.91-17.53c0.07-2.84,0.12-5.69,0.37-8.46l0.34-4.29l0.42-3.58
					c0.64-5.49,1.45-10.79,2.53-16.03c1.08-5.27,2.48-10.54,4.24-15.74c3.51-10.35,8.73-20.82,16.97-29.32
					c4.09-4.22,8.95-7.77,14.05-10.27c5.08-2.53,10.35-4,15.23-4.63c9.83-1.3,18.05,0.15,24.71,1.91c6.72,1.84,12.04,4.12,16.28,6.2
					c1.32,0.66,2.55,1.3,3.68,1.89c0.12,0.07,0.27,0.15,0.39,0.2c-1.03-0.32-2.08-0.64-3.19-0.93c-6.67-1.77-14.88-3.21-24.71-1.91
					c-4.88,0.64-10.15,2.11-15.23,4.63c-5.1,2.5-9.95,6.06-14.05,10.27c-8.24,8.51-13.46,18.98-16.97,29.32
					c-1.77,5.2-3.16,10.47-4.24,15.74c-1.08,5.25-1.89,10.54-2.53,16.03l-0.42,3.58L123.67,342.55z"/>
				<path id="XMLID_815_" class="st2" d="M621.89,343.66c0.07,5.71-0.2,11.57-0.91,17.53c-1.35,11.87-4.73,24.25-10.44,35.8
					c-5.66,11.57-13.71,22.07-22.78,30.45c-9.05,8.46-18.98,14.88-28.54,19.79c-4.76,2.4-9.44,4.46-13.97,6.25
					c1.4-0.27,2.8-0.51,4.22-0.78l2.8-0.56l0.47-0.1c-3.36,1.18-6.79,2.26-10.3,3.21c-1.96,0.54-3.95,1.03-5.96,1.52l-3.02,0.69
					l-2.8,0.56c-1.42,0.27-2.82,0.51-4.22,0.78c4.54-1.79,9.22-3.85,13.97-6.25c9.56-4.9,19.49-11.33,28.54-19.79
					c9.07-8.38,17.11-18.88,22.78-30.45c5.71-11.55,9.1-23.93,10.44-35.8c0.71-5.96,0.98-11.82,0.91-17.53
					c-0.1-2.84-0.15-5.69-0.37-8.46l-0.34-4.29l-0.42-3.58c-0.64-5.49-1.47-10.79-2.55-16.03c-1.08-5.27-2.45-10.54-4.22-15.74
					c-3.51-10.35-8.73-20.82-16.97-29.32c-4.12-4.22-8.95-7.77-14.05-10.27c-5.1-2.53-10.35-4-15.23-4.63
					c-6.08-0.81-11.52-0.56-16.38,0.17c3.04-1.28,6.5-2.5,10.44-3.58c6.69-1.77,14.91-3.21,24.74-1.91
					c4.88,0.64,10.13,2.11,15.23,4.63c5.1,2.5,9.93,6.06,14.05,10.27c8.24,8.51,13.46,18.98,16.97,29.32
					c1.77,5.2,3.14,10.47,4.22,15.74c1.08,5.25,1.91,10.54,2.55,16.03l0.42,3.58l0.34,4.29
					C621.74,337.97,621.79,340.81,621.89,343.66z"/>
				<path id="XMLID_814_" class="st8" d="M618.5,416.03c0,0-2.08,2.15-6.23,5.5c-4.13,3.32-10.28,7.76-18.18,12.09
					c-3.96,2.15-8.33,4.29-13.09,6.24c-4.74,1.99-9.88,3.68-15.25,5.21c-5.36,1.6-11.07,2.53-16.85,3.55
					c-5.81,0.81-11.77,1.37-17.75,1.46l-4.49,0.12c-1.5,0.02-2.99-0.07-4.48-0.09l-4.47-0.13c-1.48-0.12-2.96-0.24-4.44-0.36
					c-1.48-0.12-2.95-0.24-4.41-0.36c-1.46-0.17-2.91-0.35-4.36-0.52c-1.45-0.17-2.88-0.35-4.31-0.52
					c-1.42-0.24-2.83-0.49-4.22-0.73c-5.6-0.89-10.98-2.09-16.08-3.23c-5.05-1.35-9.9-2.45-14.28-3.85
					c-2.21-0.65-4.32-1.28-6.33-1.88c-1.99-0.66-3.89-1.29-5.66-1.87c-1.79-0.58-3.46-1.13-5-1.63c-1.53-0.55-2.94-1.06-4.2-1.52
					c-5.09-1.83-8.05-2.82-8.05-2.82s2.64,1.62,7.34,4.36c1.18,0.68,2.49,1.43,3.92,2.24c1.46,0.74,3.05,1.54,4.74,2.4
					c1.7,0.85,3.51,1.76,5.41,2.72c1.93,0.92,4.01,1.75,6.16,2.69c4.27,1.94,9.06,3.67,14.15,5.46c5.14,1.61,10.56,3.43,16.35,4.63
					c1.44,0.33,2.89,0.67,4.36,1.01c1.48,0.27,2.97,0.53,4.47,0.8c1.5,0.27,3.01,0.54,4.53,0.81c1.52,0.25,3.08,0.36,4.62,0.55
					c1.55,0.17,3.11,0.34,4.67,0.51l4.73,0.27c1.58,0.07,3.16,0.21,4.75,0.23l4.77,0.01c6.37-0.04,12.73-0.71,18.96-1.58
					c3.09-0.58,6.19-0.99,9.17-1.82c1.5-0.37,2.98-0.75,4.46-1.12c1.46-0.44,2.9-0.88,4.34-1.32c2.87-0.85,5.63-1.92,8.32-2.94
					c2.64-1.16,5.25-2.22,7.69-3.48c4.96-2.35,9.4-5.05,13.34-7.74c3.98-2.63,7.37-5.41,10.27-7.95c2.93-2.52,5.24-4.98,7.12-7.01
					c1.88-2.03,3.18-3.79,4.09-4.97c0.88-1.19,1.33-1.88,1.33-1.88c0.37-0.57,0.21-1.33-0.36-1.7
					C619.56,415.52,618.9,415.61,618.5,416.03z"/>
				<path id="XMLID_813_" class="st8" d="M191.46,454.82c0,0-0.02,0-0.05,0c-1.69-0.29-3.58-0.74-5.49-1.18
					c-1.32-0.32-2.65-0.66-3.95-1.03c-2.92-1.62-5.84-3.38-8.73-5.34c0.34,0.07,0.69,0.15,1.01,0.2c0.02,0,0.05,0,0.05,0
					c-0.07-0.02-0.12-0.05-0.2-0.07c-1.03-0.54-2.08-1.08-3.11-1.64c-4.63-3.24-9.19-6.86-13.58-10.96
					c-9.05-8.39-17.11-18.88-22.78-30.45c-5.69-11.55-9.07-23.93-10.42-35.8c-0.71-5.96-0.98-11.82-0.91-17.53
					c0.07-2.84,0.12-5.69,0.37-8.46l0.34-4.29l0.42-3.58c0.64-5.49,1.45-10.79,2.53-16.03c1.08-5.27,2.48-10.54,4.24-15.74
					c3.51-10.35,8.73-20.82,16.97-29.32c4.09-4.22,8.95-7.77,14.05-10.27c5.07-2.53,10.35-4,15.23-4.63
					c3.65-0.49,7.06-0.59,10.27-0.42c-1.59,0.05-3.26,0.2-4.95,0.42c-4.88,0.64-10.15,2.11-15.23,4.63
					c-5.1,2.5-9.95,6.06-14.05,10.27c-8.24,8.51-13.46,18.98-16.97,29.32c-1.77,5.2-3.16,10.47-4.24,15.74
					c-1.08,5.25-1.89,10.54-2.53,16.03l-0.42,3.58l-0.34,4.29c-0.25,2.77-0.29,5.61-0.37,8.46c-0.07,5.71,0.2,11.57,0.91,17.53
					c1.35,11.87,4.73,24.25,10.42,35.8c5.66,11.57,13.73,22.07,22.78,30.45c9.07,8.46,18.95,15.05,28.54,19.96
					C191.34,454.77,191.38,454.79,191.46,454.82z"/>
				<path id="XMLID_812_" class="st8" d="M603.08,348.98c0.07,5.71-0.2,11.57-0.91,17.53c-1.35,11.87-4.73,24.25-10.44,35.8
					c-5.66,11.57-13.71,22.07-22.78,30.45c-9.05,8.46-18.98,14.88-28.54,19.79c-3.31,1.67-6.57,3.16-9.76,4.51l-1.69,0.39l-2.8,0.56
					c-1.42,0.27-2.82,0.51-4.22,0.78c4.54-1.79,9.22-3.85,13.98-6.25c9.56-4.9,19.49-11.33,28.54-19.79
					c9.07-8.38,17.11-18.88,22.78-30.45c5.71-11.55,9.1-23.93,10.44-35.8c0.71-5.96,0.98-11.82,0.91-17.53
					c-0.1-2.84-0.15-5.69-0.37-8.46l-0.34-4.29l-0.42-3.58c-0.64-5.49-1.47-10.79-2.55-16.03c-1.08-5.27-2.45-10.54-4.22-15.74
					c-3.51-10.35-8.73-20.82-16.97-29.32c-4.12-4.22-8.95-7.77-14.05-10.27c-5.1-2.53-10.35-4-15.23-4.63
					c-1.84-0.25-3.58-0.39-5.3-0.47c3.06-0.12,6.33,0,9.78,0.47c4.88,0.64,10.13,2.11,15.23,4.63c5.1,2.5,9.93,6.06,14.05,10.27
					c8.24,8.51,13.46,18.98,16.97,29.32c1.77,5.2,3.14,10.47,4.22,15.74c1.08,5.25,1.91,10.54,2.55,16.03l0.42,3.58l0.34,4.29
					C602.94,343.29,602.99,346.13,603.08,348.98z"/>
				<path id="XMLID_811_" class="st3" d="M606.96,345.1c0.07,5.71-0.2,11.57-0.91,17.53c-1.35,11.87-4.73,24.25-10.44,35.8
					c-5.47,11.18-13.14,21.33-21.85,29.54c7.11-7.45,13.34-16.21,17.97-25.67c5.71-11.55,9.1-23.93,10.44-35.8
					c0.71-5.96,0.98-11.82,0.91-17.53c-0.1-2.84-0.15-5.69-0.37-8.46l-0.34-4.29l-0.42-3.58c-0.64-5.49-1.47-10.79-2.55-16.03
					c-1.08-5.27-2.45-10.54-4.22-15.74c-3.51-10.35-8.73-20.82-16.97-29.32c-4.12-4.22-8.95-7.77-14.05-10.27
					c-5.1-2.53-10.35-4-15.23-4.63c-6.08-0.81-11.52-0.56-16.38,0.17c3.04-1.28,6.5-2.5,10.44-3.58c1.27-0.34,2.6-0.66,3.97-0.96
					c1.89,0.07,3.82,0.22,5.84,0.49c4.88,0.64,10.13,2.11,15.23,4.63c5.1,2.5,9.93,6.06,14.05,10.27
					c8.24,8.51,13.46,18.98,16.97,29.32c1.77,5.2,3.14,10.47,4.22,15.74c1.08,5.25,1.91,10.54,2.55,16.03l0.42,3.58l0.34,4.29
					C606.81,339.41,606.86,342.26,606.96,345.1z"/>
				<path id="XMLID_810_" class="st3" d="M205.34,261.52c-1.03-0.32-2.08-0.64-3.19-0.93c-6.67-1.77-14.88-3.21-24.71-1.91
					c-4.88,0.64-10.15,2.11-15.23,4.63c-5.1,2.5-9.95,6.06-14.05,10.27c-8.24,8.51-13.46,18.98-16.97,29.32
					c-1.77,5.2-3.16,10.47-4.24,15.74c-1.08,5.25-1.89,10.54-2.53,16.03l-0.42,3.58l-0.34,4.29c-0.25,2.77-0.29,5.61-0.37,8.46
					c-0.07,5.71,0.2,11.57,0.91,17.53c1.35,11.87,4.73,24.25,10.42,35.8c4.49,9.17,10.47,17.65,17.26,24.93
					c-9.05-8.39-17.11-18.88-22.78-30.45c-5.69-11.55-9.07-23.93-10.42-35.8c-0.71-5.96-0.98-11.82-0.91-17.53
					c0.07-2.84,0.12-5.69,0.37-8.46l0.34-4.29l0.42-3.58c0.64-5.49,1.45-10.79,2.53-16.03c1.08-5.27,2.48-10.54,4.24-15.74
					c3.51-10.35,8.73-20.82,16.97-29.32c4.09-4.22,8.95-7.77,14.05-10.27c5.08-2.53,10.35-4,15.23-4.63
					c4.07-0.54,7.85-0.61,11.35-0.37c0.59,0.15,1.15,0.29,1.72,0.44c6.72,1.84,12.04,4.12,16.28,6.2c1.32,0.66,2.55,1.3,3.68,1.89
					C205.07,261.4,205.21,261.47,205.34,261.52z"/>
				<path id="XMLID_809_" class="st8" d="M369.25,75.33c5.21-1.47,10.22-2.77,14.94-3.91c-14.91-2.48-26.06-2.7-29-2.7h-0.61
					c-5-0.05-128.94,0.02-144.26,105.3c0,0-19.54,52.3,24.98,133.74c8.83,16.16,12.11,34.99,7.92,52.93
					c-2.89,12.28-10.64,25.4-23.39,30.72c-2.87-0.05-5.86-0.2-8.97-0.47c-11.08-0.98-23.29-3.73-33.27-9.64
					c-5-2.97-9.51-6.72-13.41-11.6c-3.87-4.85-7.16-10.91-9.44-17.97c-1.15-3.51-2.08-7.26-2.82-11.13
					c-0.29-1.96-0.69-3.9-0.88-5.93l-0.34-2.84l-0.27-3.58c-0.32-4-0.51-8.09-0.49-12.11c0.02-3.97,0.27-7.77,0.71-11.35
					c0.86-7.16,2.75-13.17,5.27-17.36s5.71-6.86,10.15-8.53c4.39-1.67,9.68-2.04,14.54-1.69c4.85,0.32,9.32,1.25,12.95,2.21
					c0.66,0.17,1.28,0.34,1.86,0.51c-10.98-9.22-21.65-7.97-29.69-4.34c-8.07,3.65-14.29,10.42-18.07,18.44
					c-34.46,73.08,28.76,120.56,79.16,107.89c0.06,0.6,0.2,1.17,0.47,1.69c2.33,4.51,12.02,4.13,21.65-0.84
					c9.62-4.98,15.53-12.67,13.2-17.18c-0.71-1.37-2.09-2.28-3.94-2.75c33.3-40.72-21.38-117.2-13.08-204.19
					c3.67-38.38,33.74-64.47,68.06-81.93c-0.34,1.03-0.41,2.01-0.1,2.89c1.96,5.59,17.02,5.39,33.63-0.44
					c16.61-5.83,28.48-15.09,26.52-20.68C372.7,77.05,371.3,76,369.25,75.33z"/>
				<path id="XMLID_808_" class="st8" d="M233.29,411.68c0.55,2.02-2.49,4.61-6.79,5.79c-4.3,1.18-8.24,0.5-8.79-1.52
					c-0.55-2.02,2.49-4.61,6.79-5.79C228.8,408.98,232.74,409.66,233.29,411.68z"/>
				<path id="XMLID_807_" class="st8" d="M584.74,304.8c-0.88-7.16-2.75-13.17-5.27-17.36s-5.71-6.86-10.15-8.53
					c-4.41-1.67-9.68-2.04-14.54-1.69c-0.15,0-0.29,0.02-0.44,0.05c2.65,0.22,5.27,0.76,7.62,1.64c4.44,1.67,7.62,4.34,10.15,8.53
					c2.53,4.19,4.39,10.2,5.27,17.36c0.44,3.58,0.69,7.38,0.69,11.35c0.02,4.02-0.15,8.12-0.47,12.11l-0.27,3.58l-0.34,2.84
					c-0.22,2.04-0.59,3.97-0.91,5.93c-0.71,3.87-1.67,7.62-2.8,11.13c-2.3,7.06-5.57,13.12-9.44,17.97
					c-3.9,4.88-8.41,8.63-13.44,11.6c-9.98,5.91-22.19,8.65-33.27,9.64c-1.74,0.15-3.63,0.25-5.59,0.27
					c4.41,0.1,9.05,0.07,12.95-0.27c11.08-0.98,23.29-3.73,33.27-9.64c5.03-2.97,9.54-6.72,13.44-11.6
					c1.05-1.31,2.21-2.61,3.36-3.96c0.34,0.64,0.79,1.11,1.36,1.27c2.01,0.57,4.63-2.45,5.85-6.74c1.15-4.05,0.62-7.75-1.13-8.64
					c0.04-3.65,2.08-7.19,2.79-11.03c0.32-1.96,0.69-3.9,0.91-5.93l0.34-2.84l0.27-3.58c0.32-4,0.49-8.09,0.47-12.11
					C585.43,312.18,585.19,308.37,584.74,304.8z"/>
				<path id="XMLID_806_" class="st8" d="M587.25,342.43c1.1,0.26,1.56,2.37,1.01,4.72c-0.54,2.35-1.88,4.05-2.98,3.8
					c-1.1-0.26-1.56-2.37-1.01-4.72C584.81,343.88,586.14,342.18,587.25,342.43z"/>
				<g id="XMLID_777_">
					<g id="XMLID_802_">
						<path id="XMLID_805_" class="st4" d="M112.81,349.67c0.28,5.35-2.01,9.82-5.1,9.98c-3.1,0.16-5.83-4.05-6.11-9.4
							c-0.28-5.35,2.01-9.82,5.1-9.98C109.79,340.11,112.53,344.32,112.81,349.67z"/>
						<path id="XMLID_804_" class="st5" d="M112.81,349.68c0.28,5.34-2.01,9.82-5.11,9.98c-0.46,0.02-0.89-0.04-1.34-0.23
							c2.39-1.15,4.01-5.08,3.78-9.62c-0.24-4.56-2.26-8.27-4.75-9.17c0.42-0.23,0.85-0.34,1.31-0.37
							C109.8,340.12,112.54,344.32,112.81,349.68z"/>
						<path id="XMLID_803_" class="st6" d="M106.27,355.92c-1.15,0.06-2.22-2.4-2.38-5.5c-0.16-3.1,0.64-5.65,1.8-5.71
							C106.84,344.64,107.42,355.86,106.27,355.92z"/>
					</g>
					<g id="XMLID_798_">
						<path id="XMLID_801_" class="st4" d="M119.13,385.74c1.1,4.19,0.03,8.11-2.39,8.75c-2.43,0.64-5.29-2.24-6.39-6.43
							s-0.03-8.11,2.39-8.75C115.16,378.67,118.02,381.55,119.13,385.74z"/>
						<path id="XMLID_800_" class="st5" d="M119.14,385.75c1.1,4.18,0.04,8.11-2.39,8.75c-0.36,0.09-0.72,0.11-1.1,0.04
							c1.7-1.31,2.34-4.68,1.4-8.24c-0.94-3.57-3.16-6.18-5.28-6.48c0.3-0.25,0.62-0.41,0.97-0.51
							C115.17,378.67,118.03,381.55,119.14,385.75z"/>
						<path id="XMLID_799_" class="st6" d="M114.98,391.77c-0.9,0.24-2.16-1.53-2.79-3.96c-0.64-2.43-0.42-4.58,0.48-4.82
							C113.58,382.75,115.89,391.53,114.98,391.77z"/>
					</g>
					<g id="XMLID_794_">
						<path id="XMLID_797_" class="st4" d="M114.64,310.62c-0.62,4.29-3.14,7.48-5.62,7.12c-2.48-0.36-3.99-4.13-3.37-8.42
							c0.62-4.29,3.14-7.48,5.62-7.12C113.75,302.56,115.26,306.33,114.64,310.62z"/>
						<path id="XMLID_796_" class="st5" d="M114.64,310.63c-0.62,4.28-3.14,7.48-5.62,7.12c-0.37-0.05-0.7-0.18-1.03-0.39
							c2.08-0.54,3.98-3.4,4.51-7.04c0.53-3.66-0.49-6.92-2.33-8.03c0.37-0.11,0.73-0.14,1.09-0.08
							C113.75,302.57,115.26,306.34,114.64,310.63z"/>
						<path id="XMLID_795_" class="st6" d="M108.47,314.55c-0.93-0.13-1.38-2.25-1.03-4.74c0.36-2.48,1.4-4.39,2.33-4.25
							C110.69,305.7,109.39,314.69,108.47,314.55z"/>
					</g>
					<g id="XMLID_790_">
						<path id="XMLID_793_" class="st4" d="M133.13,414.87c1.58,2.74,1.58,5.7-0.01,6.62c-1.58,0.91-4.15-0.56-5.73-3.3
							c-1.58-2.74-1.58-5.7,0.01-6.62C128.99,410.65,131.55,412.13,133.13,414.87z"/>
						<path id="XMLID_792_" class="st5" d="M133.14,414.87c1.58,2.73,1.58,5.7-0.01,6.62c-0.23,0.13-0.48,0.22-0.76,0.24
							c0.95-1.25,0.75-3.75-0.59-6.07c-1.35-2.33-3.41-3.74-4.96-3.55c0.16-0.23,0.36-0.41,0.59-0.54
							C128.99,410.65,131.56,412.13,133.14,414.87z"/>
						<path id="XMLID_791_" class="st6" d="M131.37,419.91c-0.59,0.34-1.81-0.67-2.73-2.25c-0.91-1.58-1.18-3.15-0.59-3.49
							C128.65,413.83,131.96,419.57,131.37,419.91z"/>
					</g>
					<g id="XMLID_786_">
						<path id="XMLID_789_" class="st4" d="M125.5,277.47c-1.54,2.76-4.09,4.28-5.69,3.39c-1.6-0.89-1.64-3.85-0.1-6.62
							c1.54-2.76,4.09-4.28,5.69-3.39C127,271.75,127.04,274.71,125.5,277.47z"/>
						<path id="XMLID_788_" class="st5" d="M125.5,277.48c-1.54,2.75-4.09,4.28-5.69,3.39c-0.24-0.13-0.43-0.3-0.6-0.53
							c1.55,0.17,3.6-1.28,4.91-3.62c1.31-2.35,1.47-4.84,0.51-6.08c0.28,0.02,0.53,0.1,0.77,0.23
							C127,271.75,127.04,274.71,125.5,277.48z"/>
						<path id="XMLID_787_" class="st6" d="M120.27,278.54c-0.6-0.33-0.36-1.9,0.54-3.5c0.89-1.6,2.1-2.62,2.69-2.29
							C124.1,273.09,120.87,278.87,120.27,278.54z"/>
					</g>
					<g id="XMLID_782_">
						<path id="XMLID_785_" class="st4" d="M149.02,431.44c1.74,1.52,2.44,3.57,1.56,4.58c-0.88,1.01-3,0.59-4.75-0.93
							c-1.74-1.52-2.44-3.57-1.56-4.58C145.15,429.51,147.28,429.92,149.02,431.44z"/>
						<path id="XMLID_784_" class="st5" d="M149.03,431.44c1.74,1.52,2.44,3.57,1.56,4.58c-0.13,0.15-0.28,0.26-0.47,0.35
							c0.36-1.09-0.37-2.77-1.85-4.06c-1.48-1.3-3.24-1.78-4.27-1.28c0.06-0.2,0.15-0.37,0.28-0.51
							C145.16,429.51,147.28,429.92,149.03,431.44z"/>
						<path id="XMLID_783_" class="st6" d="M149,435.34c-0.33,0.38-1.41-0.03-2.42-0.91c-1.01-0.88-1.56-1.9-1.23-2.27
							C145.68,431.79,149.33,434.97,149,435.34z"/>
					</g>
					<g id="XMLID_778_">
						<path id="XMLID_781_" class="st4" d="M143.44,260.19c-2.09,0.99-4.25,0.82-4.82-0.39c-0.57-1.21,0.65-2.99,2.74-3.98
							c2.09-0.99,4.25-0.82,4.82,0.39C146.76,257.41,145.53,259.2,143.44,260.19z"/>
						<path id="XMLID_780_" class="st5" d="M143.44,260.19c-2.08,0.99-4.25,0.82-4.82-0.39c-0.08-0.18-0.13-0.36-0.13-0.57
							c0.85,0.76,2.69,0.76,4.46-0.08c1.78-0.84,2.93-2.26,2.88-3.4c0.16,0.13,0.28,0.28,0.36,0.46
							C146.76,257.42,145.53,259.2,143.44,260.19z"/>
						<path id="XMLID_779_" class="st6" d="M139.87,258.61c-0.21-0.45,0.59-1.28,1.8-1.85c1.21-0.57,2.36-0.67,2.57-0.22
							C144.46,256.98,140.09,259.06,139.87,258.61z"/>
					</g>
				</g>
				<g id="XMLID_748_">
					<g id="XMLID_773_">
						<path id="XMLID_776_" class="st4" d="M616.3,349.67c-0.28,5.35,2.01,9.82,5.1,9.98c3.1,0.16,5.83-4.05,6.11-9.4
							c0.28-5.35-2.01-9.82-5.1-9.98C619.31,340.11,616.58,344.32,616.3,349.67z"/>
						<path id="XMLID_775_" class="st5" d="M616.29,349.68c-0.28,5.34,2.01,9.82,5.11,9.98c0.46,0.02,0.89-0.04,1.34-0.23
							c-2.39-1.15-4.01-5.08-3.78-9.62c0.24-4.56,2.26-8.27,4.75-9.17c-0.42-0.23-0.85-0.34-1.31-0.37
							C619.3,340.12,616.57,344.32,616.29,349.68z"/>
						<path id="XMLID_774_" class="st6" d="M622.84,355.92c1.15,0.06,2.22-2.4,2.38-5.5c0.16-3.1-0.64-5.65-1.8-5.71
							C622.26,344.64,621.68,355.86,622.84,355.92z"/>
					</g>
					<g id="XMLID_769_">
						<path id="XMLID_772_" class="st4" d="M609.98,385.74c-1.1,4.19-0.03,8.11,2.39,8.75c2.43,0.64,5.29-2.24,6.39-6.43
							s0.03-8.11-2.39-8.75C613.94,378.67,611.08,381.55,609.98,385.74z"/>
						<path id="XMLID_771_" class="st5" d="M609.97,385.75c-1.1,4.18-0.04,8.11,2.39,8.75c0.36,0.09,0.72,0.11,1.1,0.04
							c-1.7-1.31-2.34-4.68-1.4-8.24c0.94-3.57,3.16-6.18,5.28-6.48c-0.3-0.25-0.62-0.41-0.97-0.51
							C613.93,378.67,611.08,381.55,609.97,385.75z"/>
						<path id="XMLID_770_" class="st6" d="M614.12,391.77c0.9,0.24,2.16-1.53,2.79-3.96c0.64-2.43,0.42-4.58-0.48-4.82
							C615.53,382.75,613.22,391.53,614.12,391.77z"/>
					</g>
					<g id="XMLID_765_">
						<path id="XMLID_768_" class="st4" d="M614.47,310.62c0.62,4.29,3.14,7.48,5.62,7.12c2.48-0.36,3.99-4.13,3.37-8.42
							c-0.62-4.29-3.14-7.48-5.62-7.12C615.36,302.56,613.85,306.33,614.47,310.62z"/>
						<path id="XMLID_767_" class="st5" d="M614.47,310.63c0.62,4.28,3.14,7.48,5.62,7.12c0.37-0.05,0.7-0.18,1.03-0.39
							c-2.08-0.54-3.98-3.4-4.51-7.04c-0.53-3.66,0.49-6.92,2.33-8.03c-0.37-0.11-0.73-0.14-1.09-0.08
							C615.35,302.57,613.84,306.34,614.47,310.63z"/>
						<path id="XMLID_766_" class="st6" d="M620.64,314.55c0.93-0.13,1.38-2.25,1.03-4.74c-0.36-2.48-1.4-4.39-2.33-4.25
							C618.41,305.7,619.71,314.69,620.64,314.55z"/>
					</g>
					<g id="XMLID_761_">
						<path id="XMLID_764_" class="st4" d="M595.97,414.87c-1.58,2.74-1.58,5.7,0.01,6.62s4.15-0.56,5.73-3.3
							c1.58-2.74,1.58-5.7-0.01-6.62C600.12,410.65,597.55,412.13,595.97,414.87z"/>
						<path id="XMLID_763_" class="st5" d="M595.96,414.87c-1.58,2.73-1.58,5.7,0.01,6.62c0.23,0.13,0.48,0.22,0.76,0.24
							c-0.95-1.25-0.75-3.75,0.59-6.07c1.35-2.33,3.41-3.74,4.96-3.55c-0.16-0.23-0.36-0.41-0.59-0.54
							C600.11,410.65,597.55,412.13,595.96,414.87z"/>
						<path id="XMLID_762_" class="st6" d="M597.73,419.91c0.59,0.34,1.81-0.67,2.73-2.25c0.91-1.58,1.18-3.15,0.59-3.49
							C600.45,413.83,597.14,419.57,597.73,419.91z"/>
					</g>
					<g id="XMLID_757_">
						<path id="XMLID_760_" class="st4" d="M603.61,277.47c1.54,2.76,4.09,4.28,5.69,3.39c1.6-0.89,1.64-3.85,0.1-6.62
							c-1.54-2.76-4.09-4.28-5.69-3.39C602.11,271.75,602.06,274.71,603.61,277.47z"/>
						<path id="XMLID_759_" class="st5" d="M603.6,277.48c1.54,2.75,4.09,4.28,5.69,3.39c0.24-0.13,0.43-0.3,0.6-0.53
							c-1.55,0.17-3.6-1.28-4.91-3.62c-1.31-2.35-1.47-4.84-0.51-6.08c-0.28,0.02-0.53,0.1-0.77,0.23
							C602.11,271.75,602.06,274.71,603.6,277.48z"/>
						<path id="XMLID_758_" class="st6" d="M608.83,278.54c0.6-0.33,0.36-1.9-0.54-3.5c-0.89-1.6-2.1-2.62-2.69-2.29
							C605.01,273.09,608.24,278.87,608.83,278.54z"/>
					</g>
					<g id="XMLID_753_">
						<path id="XMLID_756_" class="st4" d="M580.08,431.44c-1.74,1.52-2.44,3.57-1.56,4.58c0.88,1.01,3,0.59,4.75-0.93
							c1.74-1.52,2.44-3.57,1.56-4.58C583.95,429.51,581.83,429.92,580.08,431.44z"/>
						<path id="XMLID_755_" class="st5" d="M580.08,431.44c-1.74,1.52-2.44,3.57-1.56,4.58c0.13,0.15,0.28,0.26,0.47,0.35
							c-0.36-1.09,0.37-2.77,1.85-4.06c1.48-1.3,3.24-1.78,4.27-1.28c-0.06-0.2-0.15-0.37-0.28-0.51
							C583.95,429.51,581.82,429.92,580.08,431.44z"/>
						<path id="XMLID_754_" class="st6" d="M580.11,435.34c0.33,0.38,1.41-0.03,2.42-0.91c1.01-0.88,1.56-1.9,1.23-2.27
							C583.43,431.79,579.78,434.97,580.11,435.34z"/>
					</g>
					<g id="XMLID_749_">
						<path id="XMLID_752_" class="st4" d="M585.66,260.19c2.09,0.99,4.25,0.82,4.82-0.39c0.57-1.21-0.65-2.99-2.74-3.98
							c-2.09-0.99-4.25-0.82-4.82,0.39C582.35,257.41,583.58,259.2,585.66,260.19z"/>
						<path id="XMLID_751_" class="st5" d="M585.67,260.19c2.08,0.99,4.25,0.82,4.82-0.39c0.08-0.18,0.13-0.36,0.13-0.57
							c-0.85,0.76-2.69,0.76-4.46-0.08c-1.78-0.84-2.93-2.26-2.88-3.4c-0.16,0.13-0.28,0.28-0.36,0.46
							C582.35,257.42,583.57,259.2,585.67,260.19z"/>
						<path id="XMLID_750_" class="st6" d="M589.23,258.61c0.21-0.45-0.59-1.28-1.8-1.85s-2.36-0.67-2.58-0.22
							C584.64,256.98,589.02,259.06,589.23,258.61z"/>
					</g>
				</g>
				<path id="XMLID_842_" class="st7" d="M685.13,208.97c0,0-0.24-0.07-0.68-0.21c-0.3-0.09-0.66-0.21-1.09-0.35
					c-0.33-0.13-0.71-0.28-1.13-0.45c-1.66-0.7-3.89-1.74-6.33-3.44c-1.24-0.78-2.48-1.85-3.77-2.94c-1.21-1.23-2.54-2.41-3.63-3.96
					c-0.56-0.75-1.16-1.48-1.66-2.29c-0.47-0.83-0.94-1.67-1.42-2.52c-0.92-1.69-1.52-3.56-2.14-5.35
					c-0.37-1.84-0.94-3.67-1.01-5.44c-0.06-1.76-0.36-3.52-0.15-5.12c0.14-1.61,0.21-3.17,0.43-4.59c0.29-1.39,0.57-2.7,0.82-3.91
					c0.22-1.22,0.57-2.26,0.89-3.18c0.31-0.92,0.58-1.72,0.8-2.38c0.44-1.31,0.7-2.05,0.7-2.05c0.76-2.23,3.18-3.43,5.42-2.67
					c1.9,0.64,3.04,2.49,2.88,4.4l-0.04,0.5c0,0-0.06,0.68-0.16,1.87c-0.05,0.59-0.11,1.3-0.18,2.12c-0.09,0.82-0.17,1.73-0.09,2.71
					c0.03,0.97,0.06,2.02,0.09,3.13c0.1,1.08,0.35,2.17,0.5,3.3c0.09,1.16,0.64,2.15,0.91,3.24c0.28,1.09,0.95,1.96,1.35,2.93
					c0.62,0.84,1.12,1.71,1.8,2.4l0.99,1.01c0.33,0.32,0.74,0.56,1.08,0.84c0.64,0.59,1.51,0.94,2.17,1.37
					c0.79,0.32,1.45,0.69,2.17,0.89c1.36,0.5,2.59,0.7,3.35,0.79c0.19,0.02,0.35,0.04,0.5,0.05c0.05-0.02,0.1-0.03,0.14-0.04
					l0.04-0.01c0.06,0.01,0.12,0.01,0.16,0.01c0.09,0.01,0.13,0.01,0.13,0.01c5.44,0.46,9.48,5.24,9.02,10.69
					c-0.46,5.44-5.24,9.48-10.69,9.02c-0.72-0.06-1.41-0.2-2.08-0.4L685.13,208.97z"/>
			</g>
			<path id="XMLID_746_" class="st16" d="M449.42,236.67c0,5.08-12.07,9.19-26.97,9.19c-14.89,0-26.97-4.12-26.97-9.19
				c0-5.08,12.07-9.19,26.97-9.19C437.35,227.48,449.42,231.59,449.42,236.67z"/>
			<path id="XMLID_745_" class="st16" d="M325,236.67c0,5.08-12.07,9.19-26.97,9.19c-14.89,0-26.97-4.12-26.97-9.19
				c0-5.08,12.07-9.19,26.97-9.19C312.92,227.48,325,231.59,325,236.67z"/>
			<g id="XMLID_739_">
				<path id="XMLID_744_" class="st17" d="M403.52,242.77c-0.39,0.56-8.29,11.99-19.32,20.73c-7.33,5.8-16.01,10.43-24.79,9.96
					c-9.95-0.53-17.82-6.5-23.54-13.07c-7.33-8.45-11.08-17.87-11.08-17.87C369.24,267.5,402.39,243.59,403.52,242.77z"/>
				<path id="XMLID_743_" class="st17" d="M318.92,237.26c0,0,1.15,0.81,3.35,2.15c2.19,1.33,5.44,3.13,9.52,5.04
					c4.08,1.91,9.06,3.85,14.63,5.39c2.77,0.8,5.72,1.42,8.74,1.91c3.03,0.48,6.14,0.75,9.26,0.85c3.12,0.09,6.25-0.01,9.28-0.37
					c1.52-0.18,3.02-0.36,4.48-0.67c0.73-0.14,1.46-0.28,2.18-0.42c0.71-0.18,1.41-0.36,2.1-0.54c1.41-0.32,2.73-0.77,4.04-1.19
					c1.33-0.38,2.57-0.86,3.76-1.35c2.45-0.89,4.58-2.01,6.58-2.98c1.9-1.09,3.75-2,5.21-2.99c1.49-0.95,2.84-1.75,3.83-2.51
					c2.05-1.46,3.23-2.3,3.23-2.3l0.06-0.04c0.5-0.35,1.27-0.33,1.73,0.05c0.44,0.36,0.43,0.92,0,1.28c0,0-1.12,0.93-3.08,2.55
					c-0.96,0.83-2.29,1.72-3.76,2.78c-1.43,1.1-3.28,2.14-5.24,3.32c-2.06,1.08-4.25,2.32-6.81,3.34c-1.25,0.55-2.55,1.1-3.95,1.55
					c-1.37,0.5-2.79,0.98-4.3,1.34c-0.75,0.2-1.5,0.4-2.26,0.6c-0.78,0.16-1.56,0.32-2.35,0.47c-1.57,0.35-3.19,0.57-4.83,0.77
					c-3.28,0.42-6.67,0.56-10.04,0.49c-3.37-0.11-6.72-0.45-9.95-0.99c-3.22-0.55-6.35-1.25-9.27-2.12
					c-5.88-1.67-10.94-3.94-15.1-6.01c-8.28-4.24-12.76-8.08-12.76-8.08l-0.01-0.01c-0.45-0.39-0.41-0.98,0.09-1.33
					C317.74,236.93,318.46,236.94,318.92,237.26z"/>
				<g id="XMLID_740_">
					<path id="XMLID_742_" class="st18" d="M384.2,263.49c-7.33,5.8-16.01,10.43-24.79,9.96c-9.95-0.53-17.82-6.5-23.54-13.07
						c3.33-0.38,10-1,17.78-1.05c2.43-0.02,4.98,0,7.55,0.11C369.17,259.8,377.51,260.9,384.2,263.49z"/>
					<path id="XMLID_741_" class="st19" d="M365.98,265.19c-0.15,0.06-0.29,0.02-0.37-0.08l-0.02-0.02c0,0-0.17-0.19-0.44-0.51
						c-0.29-0.32-0.66-0.77-1.25-1.26c-0.29-0.24-0.56-0.51-0.93-0.75c-0.37-0.24-0.69-0.55-1.13-0.77c-0.42-0.23-0.81-0.51-1.3-0.7
						c-0.47-0.21-0.91-0.43-1.42-0.6c-1.86-0.73-3.9-1.07-5.47-1.17c2.43-0.02,4.98,0,7.55,0.11c0.22,0.15,0.42,0.28,0.61,0.41
						c0.47,0.3,0.83,0.68,1.23,1c0.39,0.32,0.69,0.7,1.01,1.02c0.34,0.3,0.56,0.64,0.78,0.94c0.49,0.6,0.76,1.13,0.98,1.51
						c0.2,0.36,0.32,0.56,0.32,0.56C366.2,265,366.13,265.15,365.98,265.19z"/>
				</g>
			</g>
			<g id="XMLID_557_">
				<path id="XMLID_738_" class="st20" d="M432.05,209.97c-6.32,16.91-21.17,26.55-33.57,22.64c-12.4-3.91-19.03-20.32-14.51-37.8
					c4.89-18.9,20.73-31.73,35.01-27.23C433.27,172.09,438.89,191.69,432.05,209.97z"/>
				<path id="XMLID_737_" class="st17" d="M392.16,177.6c0,0,0.15-0.23,0.43-0.66c0.29-0.43,0.66-1.08,1.3-1.85
					c1.2-1.58,3.08-3.7,5.89-5.73c1.37-1.06,3.04-1.94,4.86-2.8c1.84-0.83,3.93-1.39,6.15-1.71c2.22-0.31,4.59-0.21,6.93,0.26
					c2.41,0.5,4.4,1.43,6.64,2.74c2.04,1.29,3.81,2.94,5.3,4.73c1.4,1.85,2.65,3.77,3.5,5.77c0.89,1.99,1.48,3.99,1.93,5.89
					c0.39,1.92,0.6,3.75,0.71,5.44c0.08,1.69,0.03,3.23-0.08,4.59c-0.07,1.36-0.33,2.52-0.44,3.48c-0.41,1.9-0.67,2.96-0.67,2.96
					c-0.01,0.06-0.07,0.09-0.13,0.08c-0.05-0.01-0.08-0.06-0.08-0.11c0,0,0-1.09,0-3c-0.06-0.95-0.06-2.1-0.2-3.41
					c-0.07-0.65-0.14-1.34-0.21-2.07c-0.12-0.72-0.25-1.48-0.38-2.26c-0.3-1.57-0.72-3.23-1.28-4.95c-0.58-1.7-1.28-3.46-2.23-5.14
					c-0.88-1.72-2.05-3.31-3.33-4.81c-1.38-1.41-2.84-2.75-4.53-3.76c-1.53-0.89-3.58-1.73-5.39-2.14
					c-1.87-0.42-3.78-0.47-5.63-0.33c-3.7,0.29-7.1,1.6-9.85,3.07c-1.39,0.71-2.58,1.53-3.67,2.24c-1.05,0.75-1.96,1.44-2.68,2.03
					c-1.46,1.19-2.29,1.94-2.29,1.94c-0.16,0.14-0.4,0.13-0.54-0.03C392.07,177.94,392.07,177.74,392.16,177.6z"/>
				<path id="XMLID_736_" class="st21" d="M426.14,205.59c-4.08,12.95-15.19,20.99-24.8,17.96c-9.61-3.03-14.1-15.99-10.01-28.94
					c4.08-12.95,15.19-20.99,24.8-17.96C425.74,179.68,430.23,192.64,426.14,205.59z"/>
				<path id="XMLID_735_" class="st21" d="M426.14,205.59c-4.08,12.95-15.19,20.99-24.8,17.96c-9.61-3.03-14.1-15.99-10.01-28.94
					c4.08-12.95,15.19-20.99,24.8-17.96C425.74,179.68,430.23,192.64,426.14,205.59z"/>
				<path id="XMLID_734_" class="st22" d="M420.57,203.83c-2.78,8.81-10.33,14.27-16.87,12.21s-9.59-10.87-6.81-19.68
					c2.78-8.81,10.33-14.27,16.87-12.21C420.3,186.22,423.35,195.03,420.57,203.83z"/>
				<path id="XMLID_733_" class="st20" d="M400.9,202.96c0,1.24-2.15,2.25-4.8,2.25c-2.65,0-4.8-1.01-4.8-2.25s2.15-2.25,4.8-2.25
					C398.75,200.71,400.9,201.72,400.9,202.96z"/>
				<path id="XMLID_558_" class="st20" d="M424.5,191.31c0,1.86-2.15,3.37-4.8,3.37c-2.65,0-4.8-1.51-4.8-3.37
					c0-1.86,2.15-3.37,4.8-3.37C422.35,187.94,424.5,189.45,424.5,191.31z"/>
			</g>
			<g id="XMLID_549_">
				<path id="XMLID_556_" class="st20" d="M281.52,209.97c6.32,16.91,21.17,26.55,33.57,22.64c12.4-3.91,19.03-20.32,14.51-37.8
					c-4.89-18.9-20.73-31.73-35.01-27.23C280.29,172.09,274.68,191.69,281.52,209.97z"/>
				<path id="XMLID_555_" class="st17" d="M321.4,177.6c0,0-0.15-0.23-0.43-0.66c-0.29-0.43-0.66-1.08-1.3-1.85
					c-1.2-1.58-3.08-3.7-5.89-5.73c-1.37-1.06-3.04-1.94-4.86-2.8c-1.84-0.83-3.93-1.39-6.15-1.71c-2.22-0.31-4.59-0.21-6.93,0.26
					c-2.41,0.5-4.4,1.43-6.64,2.74c-2.04,1.29-3.81,2.94-5.3,4.73c-1.4,1.85-2.65,3.77-3.5,5.77c-0.89,1.99-1.48,3.99-1.93,5.89
					c-0.39,1.92-0.6,3.75-0.71,5.44c-0.08,1.69-0.03,3.23,0.08,4.59c0.07,1.36,0.33,2.52,0.44,3.48c0.41,1.9,0.67,2.96,0.67,2.96
					c0.01,0.06,0.07,0.09,0.13,0.08c0.05-0.01,0.08-0.06,0.08-0.11c0,0,0-1.09,0-3c0.06-0.95,0.06-2.1,0.2-3.41
					c0.07-0.65,0.14-1.34,0.21-2.07c0.12-0.72,0.25-1.48,0.38-2.26c0.3-1.57,0.72-3.23,1.28-4.95c0.58-1.7,1.28-3.46,2.23-5.14
					c0.88-1.72,2.05-3.31,3.33-4.81c1.38-1.41,2.84-2.75,4.53-3.76c1.53-0.89,3.58-1.73,5.39-2.14c1.87-0.42,3.78-0.47,5.63-0.33
					c3.7,0.29,7.11,1.6,9.85,3.07c1.39,0.71,2.58,1.53,3.67,2.24c1.05,0.75,1.96,1.44,2.68,2.03c1.46,1.19,2.29,1.94,2.29,1.94
					c0.16,0.14,0.4,0.13,0.54-0.03C321.49,177.94,321.5,177.74,321.4,177.6z"/>
				<path id="XMLID_554_" class="st21" d="M287.42,205.59c4.08,12.95,15.19,20.99,24.8,17.96c9.61-3.03,14.1-15.99,10.01-28.94
					c-4.08-12.95-15.19-20.99-24.8-17.96C287.82,179.68,283.34,192.64,287.42,205.59z"/>
				<path id="XMLID_553_" class="st21" d="M287.42,205.59c4.08,12.95,15.19,20.99,24.8,17.96c9.61-3.03,14.1-15.99,10.01-28.94
					c-4.08-12.95-15.19-20.99-24.8-17.96C287.82,179.68,283.34,192.64,287.42,205.59z"/>
				<path id="XMLID_552_" class="st22" d="M292.99,203.83c2.78,8.81,10.33,14.27,16.87,12.21c6.54-2.06,9.59-10.87,6.81-19.68
					c-2.78-8.81-10.33-14.27-16.87-12.21C293.26,186.22,290.21,195.03,292.99,203.83z"/>
				<path id="XMLID_551_" class="st20" d="M312.67,202.96c0,1.24,2.15,2.25,4.8,2.25c2.65,0,4.8-1.01,4.8-2.25s-2.15-2.25-4.8-2.25
					C314.81,200.71,312.67,201.72,312.67,202.96z"/>
				<path id="XMLID_550_" class="st20" d="M289.07,191.31c0,1.86,2.15,3.37,4.8,3.37s4.8-1.51,4.8-3.37c0-1.86-2.15-3.37-4.8-3.37
					S289.07,189.45,289.07,191.31z"/>
			</g>
			<path id="XMLID_548_" class="st17" d="M400.3,143.26c0,0,0.14-0.12,0.49-0.32c0.34-0.2,0.84-0.51,1.48-0.82
				c1.28-0.66,3.16-1.46,5.53-2.09c1.19-0.32,2.49-0.63,3.9-0.79c1.4-0.26,2.9-0.32,4.47-0.37c1.56-0.01,3.2,0.12,4.84,0.32
				c1.63,0.33,3.33,0.53,4.94,1.16l2.42,0.83c0.77,0.38,1.53,0.75,2.29,1.12c1.53,0.71,2.86,1.73,4.17,2.66
				c1.36,0.85,2.35,2.09,3.39,3.08c1.09,0.97,1.82,2.14,2.53,3.16c0.69,1.04,1.38,1.94,1.78,2.87c0.44,0.9,0.76,1.72,1.04,2.37
				c0.54,1.32,0.79,2.08,0.79,2.08c0.21,0.65-0.14,1.36-0.8,1.57c-0.43,0.14-0.87,0.04-1.19-0.23l-0.13-0.11c0,0-0.6-0.51-1.55-1.42
				c-0.46-0.46-1.05-0.99-1.65-1.64c-0.58-0.67-1.48-1.19-2.25-1.91c-0.8-0.71-1.68-1.43-2.69-2.07c-1-0.66-1.97-1.43-3.13-1.98
				c-1.12-0.61-2.23-1.29-3.51-1.71l-1.84-0.78l-1.94-0.59c-1.26-0.47-2.63-0.65-3.93-0.99c-1.33-0.23-2.65-0.47-3.95-0.61
				c-2.6-0.33-5.1-0.44-7.28-0.51c-2.18-0.02-4.04-0.03-5.36,0.01c-1.32,0.03-2.07,0.04-2.07,0.04c-0.71,0.01-1.3-0.55-1.31-1.26
				c-0.01-0.4,0.17-0.77,0.46-1.01L400.3,143.26z"/>
			<path id="XMLID_547_" class="st17" d="M316,143.26c0,0-0.14-0.12-0.49-0.32c-0.34-0.2-0.84-0.51-1.48-0.82
				c-1.28-0.66-3.16-1.46-5.53-2.09c-1.19-0.32-2.49-0.63-3.9-0.79c-1.4-0.26-2.9-0.32-4.47-0.37c-1.56-0.01-3.2,0.12-4.84,0.32
				c-1.63,0.33-3.33,0.53-4.94,1.16l-2.42,0.83c-0.77,0.38-1.53,0.75-2.29,1.12c-1.53,0.71-2.86,1.73-4.17,2.66
				c-1.36,0.85-2.35,2.09-3.39,3.08c-1.09,0.97-1.82,2.14-2.53,3.16c-0.69,1.04-1.38,1.94-1.78,2.87c-0.44,0.9-0.76,1.72-1.04,2.37
				c-0.54,1.32-0.79,2.08-0.79,2.08c-0.21,0.65,0.14,1.36,0.8,1.57c0.43,0.14,0.87,0.04,1.19-0.23l0.13-0.11c0,0,0.6-0.51,1.55-1.42
				c0.46-0.46,1.05-0.99,1.65-1.64c0.58-0.67,1.48-1.19,2.25-1.91c0.8-0.71,1.68-1.43,2.69-2.07c1-0.66,1.97-1.43,3.13-1.98
				c1.12-0.61,2.23-1.29,3.51-1.71l1.84-0.78l1.94-0.59c1.26-0.47,2.63-0.65,3.93-0.99c1.33-0.23,2.65-0.47,3.95-0.61
				c2.6-0.33,5.1-0.44,7.28-0.51c2.18-0.02,4.04-0.03,5.35,0.01c1.32,0.03,2.07,0.04,2.07,0.04c0.71,0.01,1.3-0.55,1.31-1.26
				c0.01-0.4-0.17-0.77-0.46-1.01L316,143.26z"/>
			<g id="XMLID_847_">
				<path id="XMLID_851_" class="st23" d="M730.27,17.39c0,0-2.44,12.26-6.97,30.39c-2.23,9.07-4.97,19.62-8.06,30.87
					c-1.57,5.62-3.09,11.45-4.83,17.33c-1.7,5.88-3.43,11.86-5.16,17.83c-1.81,5.95-3.61,11.91-5.39,17.77
					c-1.75,5.87-3.65,11.59-5.39,17.16c-3.55,11.12-6.99,21.45-10.06,30.27c-6.08,17.66-10.7,29.27-10.7,29.27
					c-0.51,1.29-1.97,1.91-3.26,1.4c-1.15-0.46-1.77-1.67-1.53-2.84c0,0,2.52-12.24,7.16-30.33c2.29-9.06,5.09-19.58,8.24-30.81
					c1.61-5.61,3.17-11.43,4.93-17.3c1.74-5.87,3.5-11.84,5.27-17.8c1.84-5.94,3.68-11.89,5.49-17.74
					c1.78-5.86,3.72-11.57,5.49-17.13c3.61-11.1,7.11-21.41,10.24-30.22c6.18-17.63,10.89-29.21,10.89-29.21
					c0.4-0.98,1.51-1.45,2.48-1.05C729.97,15.61,730.44,16.51,730.27,17.39z"/>
				<path id="XMLID_848_" class="st24" d="M721.02,43c0,0-1.55,5.62-3.89,14.05c-2.37,8.42-5.66,19.6-8.98,30.78
					c-3.38,11.16-6.78,22.31-9.43,30.65c-2.68,8.32-4.47,13.87-4.47,13.87c-0.11,0.34-0.48,0.53-0.82,0.42
					c-0.33-0.11-0.52-0.46-0.43-0.8c0,0,1.56-5.62,3.89-14.05c2.37-8.42,5.66-19.61,8.97-30.78c3.37-11.16,6.77-22.32,9.42-30.65
					c2.69-8.32,4.48-13.87,4.48-13.87c0.11-0.34,0.48-0.53,0.82-0.42C720.92,42.31,721.11,42.67,721.02,43z"/>
			</g>
		</g>
		<path id="XMLID_543_" class="st25" d="M789.78,40.01c-0.86-0.59-2.06-0.37-2.65,0.49c0,0-7.09,10.3-16.94,26.16
			c-4.95,7.94-10.62,17.24-16.52,27.31c-2.94,5.03-6.06,10.2-9.07,15.52c-3.02,5.32-6.1,10.74-9.19,16.13
			c-3.02,5.44-6.01,10.89-8.97,16.26c-2.99,5.34-5.79,10.69-8.56,15.81c-5.37,10.05-10.27,19.47-14.39,27.68
			c-1.1-0.12-2.21-0.12-3.33,0.02c-0.37,0.05-0.76,0.12-1.13,0.22c-0.37,0.07-0.74,0.17-1.1,0.29l-0.49,0.15
			c-0.12,0.05-0.32,0.12-0.47,0.17c-0.2-0.15-0.42-0.29-0.59-0.47l-0.02-0.02c-0.69,1.1-1.35,2.18-1.99,3.24
			c1.23,1.18,2.23,2.55,2.92,4.19c1.54,3.68,1.25,7.53-0.32,10.76c-0.05,0.1-0.07,0.2-0.15,0.29c-1.2,2.38-3.09,4.39-5.54,5.66
			c0.07-0.02,0.15-0.02,0.15,0.02c0.07,0.17-0.2,1.05-0.42,2.72c-0.05,0.32-0.1,0.64-0.12,1.01c-0.22,2.3-0.32,5.49-0.25,9.32
			c0.1,5.39,0.59,12.06,1.3,19.64c0.12-0.02,0.25-0.05,0.34-0.05c1.3,0.02,2.33,1.84,2.3,4.07c-0.02,1.91-0.81,3.48-1.84,3.9
			c0,0,0,0,0,0.02c-0.02,0-0.02,0-0.02,0c0.07,0.69,0.15,1.4,0.22,2.11c0.07,0.66,0.12,1.32,0.2,1.99l17.06-1.03
			c-0.02-0.32-0.07-0.64-0.1-0.96c-0.07-0.71-0.15-1.42-0.22-2.11c0,0,0,0,0.02,0c0-0.02,0-0.02,0-0.02
			c1.03-0.42,1.81-1.99,1.84-3.9c0.02-2.23-1.01-4.05-2.3-4.07c-0.1,0-0.22,0.02-0.34,0.05c-0.71-7.58-1.2-14.24-1.3-19.64
			c-0.07-3.82,0.02-7.01,0.25-9.32c0.02-0.37,0.07-0.69,0.12-1.01c0.22-1.67,0.49-2.55,0.42-2.72c0-0.05-0.07-0.05-0.15-0.02
			c2.45-1.27,4.34-3.29,5.54-5.66c0.07-0.1,0.1-0.2,0.15-0.29c1.57-3.24,1.86-7.09,0.32-10.76c-0.69-1.64-1.69-3.02-2.92-4.19
			c4.71-7.67,10.03-16.55,15.59-26.11c2.89-5.08,5.98-10.25,8.97-15.59c2.99-5.34,6.06-10.76,9.1-16.18
			c2.97-5.47,5.96-10.93,8.9-16.3c2.97-5.37,5.71-10.74,8.46-15.89c5.44-10.3,10.4-20.01,14.54-28.39
			c8.34-16.72,13.36-28.17,13.36-28.17C790.81,41.53,790.54,40.54,789.78,40.01z M707.14,210.55c-0.61,0.25-0.91,0.25-0.91,0.25
			c0.71-0.22,1.37-0.49,2.01-0.81C707.95,210.16,707.5,210.48,707.14,210.55z"/>
		<path id="XMLID_542_" class="st25" d="M620.42,145.46c-1.13,3.68-3.6,6.55-6.72,8.24c-2.3,1.28-4.98,1.89-7.7,1.69l-1.2-0.1
			c0,0-0.25,0-0.74-0.05c-0.51-0.05-1.23-0.1-2.16-0.1c-0.42,0-0.86-0.02-1.35,0c-0.44,0-0.91,0.02-1.4,0.07
			c-0.02-0.02-0.05-0.02-0.07,0h-0.12c-1.3,0.07-2.7,0.27-4.05,0.64c-2.57,0.71-4.44,1.94-5.64,3.8c-1.2,1.81-2.62,5.08-3.43,10.44
			c-0.52,3.56-0.71,7.85-0.54,12.58c0.1-0.02,0.22-0.07,0.34-0.07c2.04-0.02,3.78,2.82,3.85,6.35c0.07,3.04-1.1,5.59-2.72,6.3v0.02
			c-0.1,0.05-0.2,0.07-0.32,0.1c0.32,2.11,0.64,4.27,1.05,6.45c0.37,2.06,0.81,4.14,1.25,6.23c0.44,1.81,1.03,4.68,1.54,7.31
			c0.42,2.11,0.78,4.24,1.13,6.4c0.22,0,0.44,0.05,0.66,0.1c2.38,0.59,4.27,4.07,4.36,8.36c0.07,3.48-1.08,6.52-2.77,7.89
			c0.37,3.58,0.69,7.21,0.91,10.91c0.1,1.57,0.12,3.14,0.17,4.71c0.29,0.1,0.56,0.2,0.86,0.29c0.05,0,0.07-0.02,0.12-0.02
			s0.1,0.02,0.15,0.02c0.29,0,0.59,0.05,0.91,0.15c0.78,0.2,1.54,0.66,2.23,1.3c0.37,0.17,0.74,0.32,1.1,0.49
			c0.02,0.02,0.05,0.02,0.07,0.05c0.74-1.01,2.72-1.13,4.68-0.2c1.79,0.86,2.94,2.28,2.87,3.43c0,0.17-0.02,0.34-0.1,0.49
			c-0.02,0.02,0,0.05-0.02,0.07l-0.02,0.02l-6.33,0.39c-3.48,0.22-6.96,0.42-10.44,0.61c-0.25-0.2-0.49-0.39-0.74-0.56
			c0.15-0.15,0.29-0.29,0.37-0.47c0.02-0.02,0-0.05,0.02-0.07c0.07-0.15,0.1-0.32,0.1-0.49c0.07-1.15-1.08-2.57-2.87-3.43
			c-1.96-0.93-3.95-0.81-4.68,0.2c-0.02-0.02-0.05-0.02-0.07-0.05c-0.37-0.17-0.74-0.32-1.1-0.49c-0.69-0.64-1.45-1.1-2.23-1.3
			c-0.32-0.1-0.61-0.15-0.91-0.15c-0.05,0-0.1-0.02-0.15-0.02c-0.05,0-0.07,0.02-0.12,0.02c-0.29-0.1-0.56-0.2-0.86-0.29
			c-0.05-1.57-0.07-3.14-0.17-4.71c-0.22-3.7-0.54-7.33-0.91-10.91c1.69-1.37,2.84-4.41,2.77-7.89c-0.1-4.29-1.99-7.77-4.36-8.36
			c-0.22-0.05-0.44-0.1-0.66-0.1c-0.34-2.16-0.71-4.29-1.13-6.4c-0.52-2.62-1.1-5.49-1.54-7.31c-0.44-2.08-0.88-4.17-1.25-6.23
			c-0.42-2.18-0.74-4.34-1.05-6.45c0.12-0.02,0.22-0.05,0.32-0.1v-0.02c1.62-0.71,2.8-3.26,2.72-6.3c-0.07-3.53-1.81-6.37-3.85-6.35
			c-0.12,0-0.25,0.05-0.34,0.07c-0.17-4.73,0.02-9.02,0.54-12.58c0.81-5.37,2.23-8.63,3.43-10.44c1.2-1.86,3.06-3.09,5.64-3.8
			c1.35-0.37,2.75-0.56,4.05-0.64h0.12c0.02-0.02,0.05-0.02,0.07,0c0.49-0.05,0.96-0.07,1.4-0.07c0.49-0.02,0.93,0,1.35,0
			c0.93,0,1.64,0.05,2.16,0.1c0.49,0.05,0.74,0.05,0.74,0.05l1.2,0.1c2.72,0.2,5.39-0.42,7.7-1.69c3.11-1.69,5.59-4.56,6.72-8.24
			c1.4-4.66,0.25-9.51-2.65-12.99c-0.32-0.37-0.64-0.74-0.98-1.08c-0.12-0.1-0.25-0.22-0.37-0.32c-0.25-0.22-0.49-0.44-0.74-0.64
			c-0.17-0.12-0.32-0.25-0.49-0.37c-0.25-0.17-0.51-0.34-0.76-0.51c-0.17-0.1-0.34-0.22-0.51-0.32c-0.29-0.17-0.61-0.32-0.93-0.47
			c-0.15-0.07-0.29-0.15-0.47-0.22c-0.47-0.2-0.96-0.39-1.47-0.54c0,0-0.39-0.12-1.13-0.34c-0.76-0.25-1.86-0.56-3.38-0.93
			c-1.3-0.32-2.89-0.69-4.83-1.01c2.82-0.51,5.42-0.71,7.72-0.74c6.67-0.05,11.25,1.01,14.27,1.74c1.52,0.37,2.62,0.69,3.38,0.93
			c0.74,0.22,1.13,0.34,1.13,0.34c0.51,0.15,1.01,0.34,1.47,0.54c0.17,0.07,0.32,0.15,0.47,0.22c0.32,0.15,0.64,0.29,0.93,0.47
			c0.17,0.1,0.34,0.22,0.51,0.32c0.25,0.17,0.51,0.34,0.76,0.51c0.17,0.12,0.32,0.25,0.49,0.37c0.25,0.2,0.49,0.42,0.74,0.64
			c0.12,0.1,0.25,0.22,0.37,0.32c0.34,0.34,0.66,0.71,0.98,1.08C620.66,135.94,621.81,140.8,620.42,145.46z"/>
		<path id="XMLID_541_" class="st25" d="M510.04,264.64c-5.79,0.2-11.57,0.39-17.36,0.59c19.07-56.66,6.18-91.21,6.18-91.21
			c-10.81-74.24-75.61-96.16-114.64-102.61c0,0,0,0-0.02,0c-8.51-1.42-15.79-2.08-21.01-2.43c4.81-0.27,7.85-0.27,8.56-0.27h0.61
			c2.94,0,14.1,0.22,29,2.7c0.02,0,0.02,0,0.02,0c39.03,6.45,103.83,28.37,114.64,102.61C516.02,174.02,528.82,208.32,510.04,264.64
			z"/>
	</g>
</g>
</svg>
